<?xml version="1.0" encoding="utf-8" standalone="no"?>
<!DOCTYPE svg PUBLIC "-//W3C//DTD SVG 1.1//EN"
  "http://www.w3.org/Graphics/SVG/1.1/DTD/svg11.dtd">
<svg xmlns:xlink="http://www.w3.org/1999/xlink" width="895.534516pt" height="288.193746pt" viewBox="0 0 895.534516 288.193746" xmlns="http://www.w3.org/2000/svg" version="1.1">
 <metadata>
  <rdf:RDF xmlns:dc="http://purl.org/dc/elements/1.1/" xmlns:cc="http://creativecommons.org/ns#" xmlns:rdf="http://www.w3.org/1999/02/22-rdf-syntax-ns#">
   <cc:Work>
    <dc:type rdf:resource="http://purl.org/dc/dcmitype/StillImage"/>
    <dc:date>2026-06-30T19:40:33.032044</dc:date>
    <dc:format>image/svg+xml</dc:format>
    <dc:creator>
     <cc:Agent>
      <dc:title>Matplotlib v3.10.8, https://matplotlib.org/</dc:title>
     </cc:Agent>
    </dc:creator>
   </cc:Work>
  </rdf:RDF>
 </metadata>
 <defs>
  <style type="text/css">*{stroke-linejoin: round; stroke-linecap: butt}</style>
 </defs>
 <g id="figure_1">
  <g id="patch_1">
   <path d="M 0 288.193746 
L 895.534516 288.193746 
L 895.534516 0 
L 0 0 
z
" style="fill: #ffffff"/>
  </g>
  <g id="axes_1">
   <g id="patch_2">
    <path d="M 49.678516 252.57984 
L 420.765241 252.57984 
L 420.765241 55.58784 
L 49.678516 55.58784 
z
" style="fill: #ffffff"/>
   </g>
   <g id="matplotlib.axis_1">
    <g id="xtick_1">
     <g id="line2d_1">
      <path d="M 97.051289 252.57984 
L 97.051289 55.58784 
" clip-path="url(#pc38fce289a)" style="fill: none; stroke: #b0b0b0; stroke-opacity: 0.25; stroke-width: 0.45; stroke-linecap: square"/>
     </g>
     <g id="line2d_2">
      <defs>
       <path id="m2e13ddfe93" d="M 0 0 
L 0 -5 
" style="stroke: #000000"/>
      </defs>
      <g>
       <use xlink:href="#m2e13ddfe93" x="97.051289" y="252.57984" style="stroke: #000000"/>
      </g>
     </g>
     <g id="text_1">
      <!-- 0.2 -->
      <g transform="translate(90.488789 263.370777) scale(0.105 -0.105)">
       <defs>
        <path id="TimesNewRomanPSMT-30" d="M 231 2094 
Q 231 2819 450 3342 
Q 669 3866 1031 4122 
Q 1313 4325 1613 4325 
Q 2100 4325 2488 3828 
Q 2972 3213 2972 2159 
Q 2972 1422 2759 906 
Q 2547 391 2217 158 
Q 1888 -75 1581 -75 
Q 975 -75 572 641 
Q 231 1244 231 2094 
z
M 844 2016 
Q 844 1141 1059 588 
Q 1238 122 1591 122 
Q 1759 122 1940 273 
Q 2122 425 2216 781 
Q 2359 1319 2359 2297 
Q 2359 3022 2209 3506 
Q 2097 3866 1919 4016 
Q 1791 4119 1609 4119 
Q 1397 4119 1231 3928 
Q 1006 3669 925 3112 
Q 844 2556 844 2016 
z
" transform="scale(0.015625)"/>
        <path id="TimesNewRomanPSMT-2e" d="M 800 606 
Q 947 606 1047 504 
Q 1147 403 1147 259 
Q 1147 116 1045 14 
Q 944 -88 800 -88 
Q 656 -88 554 14 
Q 453 116 453 259 
Q 453 406 554 506 
Q 656 606 800 606 
z
" transform="scale(0.015625)"/>
        <path id="TimesNewRomanPSMT-32" d="M 2934 816 
L 2638 0 
L 138 0 
L 138 116 
Q 1241 1122 1691 1759 
Q 2141 2397 2141 2925 
Q 2141 3328 1894 3587 
Q 1647 3847 1303 3847 
Q 991 3847 742 3664 
Q 494 3481 375 3128 
L 259 3128 
Q 338 3706 661 4015 
Q 984 4325 1469 4325 
Q 1984 4325 2329 3994 
Q 2675 3663 2675 3213 
Q 2675 2891 2525 2569 
Q 2294 2063 1775 1497 
Q 997 647 803 472 
L 1909 472 
Q 2247 472 2383 497 
Q 2519 522 2628 598 
Q 2738 675 2819 816 
L 2934 816 
z
" transform="scale(0.015625)"/>
       </defs>
       <use xlink:href="#TimesNewRomanPSMT-30"/>
       <use xlink:href="#TimesNewRomanPSMT-2e" transform="translate(50 0)"/>
       <use xlink:href="#TimesNewRomanPSMT-32" transform="translate(75 0)"/>
      </g>
     </g>
    </g>
    <g id="xtick_2">
     <g id="line2d_3">
      <path d="M 176.005912 252.57984 
L 176.005912 55.58784 
" clip-path="url(#pc38fce289a)" style="fill: none; stroke: #b0b0b0; stroke-opacity: 0.25; stroke-width: 0.45; stroke-linecap: square"/>
     </g>
     <g id="line2d_4">
      <g>
       <use xlink:href="#m2e13ddfe93" x="176.005912" y="252.57984" style="stroke: #000000"/>
      </g>
     </g>
     <g id="text_2">
      <!-- 0.4 -->
      <g transform="translate(169.443412 263.370777) scale(0.105 -0.105)">
       <defs>
        <path id="TimesNewRomanPSMT-34" d="M 2978 1563 
L 2978 1119 
L 2409 1119 
L 2409 0 
L 1894 0 
L 1894 1119 
L 100 1119 
L 100 1519 
L 2066 4325 
L 2409 4325 
L 2409 1563 
L 2978 1563 
z
M 1894 1563 
L 1894 3666 
L 406 1563 
L 1894 1563 
z
" transform="scale(0.015625)"/>
       </defs>
       <use xlink:href="#TimesNewRomanPSMT-30"/>
       <use xlink:href="#TimesNewRomanPSMT-2e" transform="translate(50 0)"/>
       <use xlink:href="#TimesNewRomanPSMT-34" transform="translate(75 0)"/>
      </g>
     </g>
    </g>
    <g id="xtick_3">
     <g id="line2d_5">
      <path d="M 254.960534 252.57984 
L 254.960534 55.58784 
" clip-path="url(#pc38fce289a)" style="fill: none; stroke: #b0b0b0; stroke-opacity: 0.25; stroke-width: 0.45; stroke-linecap: square"/>
     </g>
     <g id="line2d_6">
      <g>
       <use xlink:href="#m2e13ddfe93" x="254.960534" y="252.57984" style="stroke: #000000"/>
      </g>
     </g>
     <g id="text_3">
      <!-- 0.6 -->
      <g transform="translate(248.398034 263.370777) scale(0.105 -0.105)">
       <defs>
        <path id="TimesNewRomanPSMT-36" d="M 2869 4325 
L 2869 4209 
Q 2456 4169 2195 4045 
Q 1934 3922 1679 3669 
Q 1425 3416 1258 3105 
Q 1091 2794 978 2366 
Q 1428 2675 1881 2675 
Q 2316 2675 2634 2325 
Q 2953 1975 2953 1425 
Q 2953 894 2631 456 
Q 2244 -75 1606 -75 
Q 1172 -75 869 213 
Q 275 772 275 1663 
Q 275 2231 503 2743 
Q 731 3256 1154 3653 
Q 1578 4050 1965 4187 
Q 2353 4325 2688 4325 
L 2869 4325 
z
M 925 2138 
Q 869 1716 869 1456 
Q 869 1156 980 804 
Q 1091 453 1309 247 
Q 1469 100 1697 100 
Q 1969 100 2183 356 
Q 2397 613 2397 1088 
Q 2397 1622 2184 2012 
Q 1972 2403 1581 2403 
Q 1463 2403 1327 2353 
Q 1191 2303 925 2138 
z
" transform="scale(0.015625)"/>
       </defs>
       <use xlink:href="#TimesNewRomanPSMT-30"/>
       <use xlink:href="#TimesNewRomanPSMT-2e" transform="translate(50 0)"/>
       <use xlink:href="#TimesNewRomanPSMT-36" transform="translate(75 0)"/>
      </g>
     </g>
    </g>
    <g id="xtick_4">
     <g id="line2d_7">
      <path d="M 333.915157 252.57984 
L 333.915157 55.58784 
" clip-path="url(#pc38fce289a)" style="fill: none; stroke: #b0b0b0; stroke-opacity: 0.25; stroke-width: 0.45; stroke-linecap: square"/>
     </g>
     <g id="line2d_8">
      <g>
       <use xlink:href="#m2e13ddfe93" x="333.915157" y="252.57984" style="stroke: #000000"/>
      </g>
     </g>
     <g id="text_4">
      <!-- 0.8 -->
      <g transform="translate(327.352657 263.370777) scale(0.105 -0.105)">
       <defs>
        <path id="TimesNewRomanPSMT-38" d="M 1228 2134 
Q 725 2547 579 2797 
Q 434 3047 434 3316 
Q 434 3728 753 4026 
Q 1072 4325 1600 4325 
Q 2113 4325 2425 4047 
Q 2738 3769 2738 3413 
Q 2738 3175 2569 2928 
Q 2400 2681 1866 2347 
Q 2416 1922 2594 1678 
Q 2831 1359 2831 1006 
Q 2831 559 2490 242 
Q 2150 -75 1597 -75 
Q 994 -75 656 303 
Q 388 606 388 966 
Q 388 1247 577 1523 
Q 766 1800 1228 2134 
z
M 1719 2469 
Q 2094 2806 2194 3001 
Q 2294 3197 2294 3444 
Q 2294 3772 2109 3958 
Q 1925 4144 1606 4144 
Q 1288 4144 1088 3959 
Q 888 3775 888 3528 
Q 888 3366 970 3203 
Q 1053 3041 1206 2894 
L 1719 2469 
z
M 1375 2016 
Q 1116 1797 991 1539 
Q 866 1281 866 981 
Q 866 578 1086 336 
Q 1306 94 1647 94 
Q 1984 94 2187 284 
Q 2391 475 2391 747 
Q 2391 972 2272 1150 
Q 2050 1481 1375 2016 
z
" transform="scale(0.015625)"/>
       </defs>
       <use xlink:href="#TimesNewRomanPSMT-30"/>
       <use xlink:href="#TimesNewRomanPSMT-2e" transform="translate(50 0)"/>
       <use xlink:href="#TimesNewRomanPSMT-38" transform="translate(75 0)"/>
      </g>
     </g>
    </g>
    <g id="xtick_5">
     <g id="line2d_9">
      <path d="M 412.869779 252.57984 
L 412.869779 55.58784 
" clip-path="url(#pc38fce289a)" style="fill: none; stroke: #b0b0b0; stroke-opacity: 0.25; stroke-width: 0.45; stroke-linecap: square"/>
     </g>
     <g id="line2d_10">
      <g>
       <use xlink:href="#m2e13ddfe93" x="412.869779" y="252.57984" style="stroke: #000000"/>
      </g>
     </g>
     <g id="text_5">
      <!-- 1.0 -->
      <g transform="translate(406.307279 263.370777) scale(0.105 -0.105)">
       <defs>
        <path id="TimesNewRomanPSMT-31" d="M 750 3822 
L 1781 4325 
L 1884 4325 
L 1884 747 
Q 1884 391 1914 303 
Q 1944 216 2037 169 
Q 2131 122 2419 116 
L 2419 0 
L 825 0 
L 825 116 
Q 1125 122 1212 167 
Q 1300 213 1334 289 
Q 1369 366 1369 747 
L 1369 3034 
Q 1369 3497 1338 3628 
Q 1316 3728 1258 3775 
Q 1200 3822 1119 3822 
Q 1003 3822 797 3725 
L 750 3822 
z
" transform="scale(0.015625)"/>
       </defs>
       <use xlink:href="#TimesNewRomanPSMT-31"/>
       <use xlink:href="#TimesNewRomanPSMT-2e" transform="translate(50 0)"/>
       <use xlink:href="#TimesNewRomanPSMT-30" transform="translate(75 0)"/>
      </g>
     </g>
    </g>
    <g id="text_6">
     <!-- Retained coverage -->
     <g transform="translate(188.890824 278.296481) scale(0.125 -0.125)">
      <defs>
       <path id="TimesNewRomanPSMT-52" d="M 4325 0 
L 3194 0 
L 1759 1981 
Q 1600 1975 1500 1975 
Q 1459 1975 1412 1976 
Q 1366 1978 1316 1981 
L 1316 750 
Q 1316 350 1403 253 
Q 1522 116 1759 116 
L 1925 116 
L 1925 0 
L 109 0 
L 109 116 
L 269 116 
Q 538 116 653 291 
Q 719 388 719 750 
L 719 3488 
Q 719 3888 631 3984 
Q 509 4122 269 4122 
L 109 4122 
L 109 4238 
L 1653 4238 
Q 2328 4238 2648 4139 
Q 2969 4041 3192 3777 
Q 3416 3513 3416 3147 
Q 3416 2756 3161 2468 
Q 2906 2181 2372 2063 
L 3247 847 
Q 3547 428 3762 290 
Q 3978 153 4325 116 
L 4325 0 
z
M 1316 2178 
Q 1375 2178 1419 2176 
Q 1463 2175 1491 2175 
Q 2097 2175 2405 2437 
Q 2713 2700 2713 3106 
Q 2713 3503 2464 3751 
Q 2216 4000 1806 4000 
Q 1625 4000 1316 3941 
L 1316 2178 
z
" transform="scale(0.015625)"/>
       <path id="TimesNewRomanPSMT-65" d="M 681 1784 
Q 678 1147 991 784 
Q 1303 422 1725 422 
Q 2006 422 2214 576 
Q 2422 731 2563 1106 
L 2659 1044 
Q 2594 616 2278 264 
Q 1963 -88 1488 -88 
Q 972 -88 605 314 
Q 238 716 238 1394 
Q 238 2128 614 2539 
Q 991 2950 1559 2950 
Q 2041 2950 2350 2633 
Q 2659 2316 2659 1784 
L 681 1784 
z
M 681 1966 
L 2006 1966 
Q 1991 2241 1941 2353 
Q 1863 2528 1708 2628 
Q 1553 2728 1384 2728 
Q 1125 2728 920 2526 
Q 716 2325 681 1966 
z
" transform="scale(0.015625)"/>
       <path id="TimesNewRomanPSMT-74" d="M 1031 3803 
L 1031 2863 
L 1700 2863 
L 1700 2644 
L 1031 2644 
L 1031 788 
Q 1031 509 1111 412 
Q 1191 316 1316 316 
Q 1419 316 1516 380 
Q 1613 444 1666 569 
L 1788 569 
Q 1678 263 1478 108 
Q 1278 -47 1066 -47 
Q 922 -47 784 33 
Q 647 113 581 261 
Q 516 409 516 719 
L 516 2644 
L 63 2644 
L 63 2747 
Q 234 2816 414 2980 
Q 594 3144 734 3369 
Q 806 3488 934 3803 
L 1031 3803 
z
" transform="scale(0.015625)"/>
       <path id="TimesNewRomanPSMT-61" d="M 1822 413 
Q 1381 72 1269 19 
Q 1100 -59 909 -59 
Q 613 -59 420 144 
Q 228 347 228 678 
Q 228 888 322 1041 
Q 450 1253 767 1440 
Q 1084 1628 1822 1897 
L 1822 2009 
Q 1822 2438 1686 2597 
Q 1550 2756 1291 2756 
Q 1094 2756 978 2650 
Q 859 2544 859 2406 
L 866 2225 
Q 866 2081 792 2003 
Q 719 1925 600 1925 
Q 484 1925 411 2006 
Q 338 2088 338 2228 
Q 338 2497 613 2722 
Q 888 2947 1384 2947 
Q 1766 2947 2009 2819 
Q 2194 2722 2281 2516 
Q 2338 2381 2338 1966 
L 2338 994 
Q 2338 584 2353 492 
Q 2369 400 2405 369 
Q 2441 338 2488 338 
Q 2538 338 2575 359 
Q 2641 400 2828 588 
L 2828 413 
Q 2478 -56 2159 -56 
Q 2006 -56 1915 50 
Q 1825 156 1822 413 
z
M 1822 616 
L 1822 1706 
Q 1350 1519 1213 1441 
Q 966 1303 859 1153 
Q 753 1003 753 825 
Q 753 600 887 451 
Q 1022 303 1197 303 
Q 1434 303 1822 616 
z
" transform="scale(0.015625)"/>
       <path id="TimesNewRomanPSMT-69" d="M 928 4444 
Q 1059 4444 1151 4351 
Q 1244 4259 1244 4128 
Q 1244 3997 1151 3903 
Q 1059 3809 928 3809 
Q 797 3809 703 3903 
Q 609 3997 609 4128 
Q 609 4259 701 4351 
Q 794 4444 928 4444 
z
M 1188 2947 
L 1188 647 
Q 1188 378 1227 289 
Q 1266 200 1342 156 
Q 1419 113 1622 113 
L 1622 0 
L 231 0 
L 231 113 
Q 441 113 512 153 
Q 584 194 626 287 
Q 669 381 669 647 
L 669 1750 
Q 669 2216 641 2353 
Q 619 2453 572 2492 
Q 525 2531 444 2531 
Q 356 2531 231 2484 
L 188 2597 
L 1050 2947 
L 1188 2947 
z
" transform="scale(0.015625)"/>
       <path id="TimesNewRomanPSMT-6e" d="M 1034 2341 
Q 1538 2947 1994 2947 
Q 2228 2947 2397 2830 
Q 2566 2713 2666 2444 
Q 2734 2256 2734 1869 
L 2734 647 
Q 2734 375 2778 278 
Q 2813 200 2889 156 
Q 2966 113 3172 113 
L 3172 0 
L 1756 0 
L 1756 113 
L 1816 113 
Q 2016 113 2095 173 
Q 2175 234 2206 353 
Q 2219 400 2219 647 
L 2219 1819 
Q 2219 2209 2117 2386 
Q 2016 2563 1775 2563 
Q 1403 2563 1034 2156 
L 1034 647 
Q 1034 356 1069 288 
Q 1113 197 1189 155 
Q 1266 113 1500 113 
L 1500 0 
L 84 0 
L 84 113 
L 147 113 
Q 366 113 442 223 
Q 519 334 519 647 
L 519 1709 
Q 519 2225 495 2337 
Q 472 2450 423 2490 
Q 375 2531 294 2531 
Q 206 2531 84 2484 
L 38 2597 
L 900 2947 
L 1034 2947 
L 1034 2341 
z
" transform="scale(0.015625)"/>
       <path id="TimesNewRomanPSMT-64" d="M 2222 322 
Q 2013 103 1813 7 
Q 1613 -88 1381 -88 
Q 913 -88 563 304 
Q 213 697 213 1313 
Q 213 1928 600 2439 
Q 988 2950 1597 2950 
Q 1975 2950 2222 2709 
L 2222 3238 
Q 2222 3728 2198 3840 
Q 2175 3953 2125 3993 
Q 2075 4034 2000 4034 
Q 1919 4034 1784 3984 
L 1744 4094 
L 2597 4444 
L 2738 4444 
L 2738 1134 
Q 2738 631 2761 520 
Q 2784 409 2836 365 
Q 2888 322 2956 322 
Q 3041 322 3181 375 
L 3216 266 
L 2366 -88 
L 2222 -88 
L 2222 322 
z
M 2222 541 
L 2222 2016 
Q 2203 2228 2109 2403 
Q 2016 2578 1861 2667 
Q 1706 2756 1559 2756 
Q 1284 2756 1069 2509 
Q 784 2184 784 1559 
Q 784 928 1059 592 
Q 1334 256 1672 256 
Q 1956 256 2222 541 
z
" transform="scale(0.015625)"/>
       <path id="TimesNewRomanPSMT-20" transform="scale(0.015625)"/>
       <path id="TimesNewRomanPSMT-63" d="M 2631 1088 
Q 2516 522 2178 217 
Q 1841 -88 1431 -88 
Q 944 -88 581 321 
Q 219 731 219 1428 
Q 219 2103 620 2525 
Q 1022 2947 1584 2947 
Q 2006 2947 2278 2723 
Q 2550 2500 2550 2259 
Q 2550 2141 2473 2067 
Q 2397 1994 2259 1994 
Q 2075 1994 1981 2113 
Q 1928 2178 1911 2362 
Q 1894 2547 1784 2644 
Q 1675 2738 1481 2738 
Q 1169 2738 978 2506 
Q 725 2200 725 1697 
Q 725 1184 976 792 
Q 1228 400 1656 400 
Q 1963 400 2206 609 
Q 2378 753 2541 1131 
L 2631 1088 
z
" transform="scale(0.015625)"/>
       <path id="TimesNewRomanPSMT-6f" d="M 1600 2947 
Q 2250 2947 2644 2453 
Q 2978 2031 2978 1484 
Q 2978 1100 2793 706 
Q 2609 313 2286 112 
Q 1963 -88 1566 -88 
Q 919 -88 538 428 
Q 216 863 216 1403 
Q 216 1797 411 2186 
Q 606 2575 925 2761 
Q 1244 2947 1600 2947 
z
M 1503 2744 
Q 1338 2744 1170 2645 
Q 1003 2547 900 2300 
Q 797 2053 797 1666 
Q 797 1041 1045 587 
Q 1294 134 1700 134 
Q 2003 134 2200 384 
Q 2397 634 2397 1244 
Q 2397 2006 2069 2444 
Q 1847 2744 1503 2744 
z
" transform="scale(0.015625)"/>
       <path id="TimesNewRomanPSMT-76" d="M 53 2863 
L 1400 2863 
L 1400 2747 
L 1313 2747 
Q 1191 2747 1127 2687 
Q 1063 2628 1063 2528 
Q 1063 2419 1128 2269 
L 1794 688 
L 2463 2328 
Q 2534 2503 2534 2594 
Q 2534 2638 2509 2666 
Q 2475 2713 2422 2730 
Q 2369 2747 2206 2747 
L 2206 2863 
L 3141 2863 
L 3141 2747 
Q 2978 2734 2916 2681 
Q 2806 2588 2719 2369 
L 1703 -88 
L 1575 -88 
L 553 2328 
Q 484 2497 421 2570 
Q 359 2644 263 2694 
Q 209 2722 53 2747 
L 53 2863 
z
" transform="scale(0.015625)"/>
       <path id="TimesNewRomanPSMT-72" d="M 1038 2947 
L 1038 2303 
Q 1397 2947 1775 2947 
Q 1947 2947 2059 2842 
Q 2172 2738 2172 2600 
Q 2172 2478 2090 2393 
Q 2009 2309 1897 2309 
Q 1788 2309 1652 2417 
Q 1516 2525 1450 2525 
Q 1394 2525 1328 2463 
Q 1188 2334 1038 2041 
L 1038 669 
Q 1038 431 1097 309 
Q 1138 225 1241 169 
Q 1344 113 1538 113 
L 1538 0 
L 72 0 
L 72 113 
Q 291 113 397 181 
Q 475 231 506 341 
Q 522 394 522 644 
L 522 1753 
Q 522 2253 501 2348 
Q 481 2444 426 2487 
Q 372 2531 291 2531 
Q 194 2531 72 2484 
L 41 2597 
L 906 2947 
L 1038 2947 
z
" transform="scale(0.015625)"/>
       <path id="TimesNewRomanPSMT-67" d="M 966 1044 
Q 703 1172 562 1401 
Q 422 1631 422 1909 
Q 422 2334 742 2640 
Q 1063 2947 1563 2947 
Q 1972 2947 2272 2747 
L 2878 2747 
Q 3013 2747 3034 2739 
Q 3056 2731 3066 2713 
Q 3084 2684 3084 2613 
Q 3084 2531 3069 2500 
Q 3059 2484 3036 2475 
Q 3013 2466 2878 2466 
L 2506 2466 
Q 2681 2241 2681 1891 
Q 2681 1491 2375 1206 
Q 2069 922 1553 922 
Q 1341 922 1119 984 
Q 981 866 932 777 
Q 884 688 884 625 
Q 884 572 936 522 
Q 988 472 1138 450 
Q 1225 438 1575 428 
Q 2219 413 2409 384 
Q 2700 344 2873 169 
Q 3047 -6 3047 -263 
Q 3047 -616 2716 -925 
Q 2228 -1381 1444 -1381 
Q 841 -1381 425 -1109 
Q 191 -953 191 -784 
Q 191 -709 225 -634 
Q 278 -519 444 -313 
Q 466 -284 763 25 
Q 600 122 533 198 
Q 466 275 466 372 
Q 466 481 555 628 
Q 644 775 966 1044 
z
M 1509 2797 
Q 1278 2797 1122 2612 
Q 966 2428 966 2047 
Q 966 1553 1178 1281 
Q 1341 1075 1591 1075 
Q 1828 1075 1981 1253 
Q 2134 1431 2134 1813 
Q 2134 2309 1919 2591 
Q 1759 2797 1509 2797 
z
M 934 0 
Q 788 -159 713 -296 
Q 638 -434 638 -550 
Q 638 -700 819 -813 
Q 1131 -1006 1722 -1006 
Q 2284 -1006 2551 -807 
Q 2819 -609 2819 -384 
Q 2819 -222 2659 -153 
Q 2497 -84 2016 -72 
Q 1313 -53 934 0 
z
" transform="scale(0.015625)"/>
      </defs>
      <use xlink:href="#TimesNewRomanPSMT-52"/>
      <use xlink:href="#TimesNewRomanPSMT-65" transform="translate(66.699219 0)"/>
      <use xlink:href="#TimesNewRomanPSMT-74" transform="translate(111.083984 0)"/>
      <use xlink:href="#TimesNewRomanPSMT-61" transform="translate(138.867188 0)"/>
      <use xlink:href="#TimesNewRomanPSMT-69" transform="translate(183.251953 0)"/>
      <use xlink:href="#TimesNewRomanPSMT-6e" transform="translate(211.035156 0)"/>
      <use xlink:href="#TimesNewRomanPSMT-65" transform="translate(261.035156 0)"/>
      <use xlink:href="#TimesNewRomanPSMT-64" transform="translate(305.419922 0)"/>
      <use xlink:href="#TimesNewRomanPSMT-20" transform="translate(355.419922 0)"/>
      <use xlink:href="#TimesNewRomanPSMT-63" transform="translate(380.419922 0)"/>
      <use xlink:href="#TimesNewRomanPSMT-6f" transform="translate(424.804688 0)"/>
      <use xlink:href="#TimesNewRomanPSMT-76" transform="translate(474.804688 0)"/>
      <use xlink:href="#TimesNewRomanPSMT-65" transform="translate(524.804688 0)"/>
      <use xlink:href="#TimesNewRomanPSMT-72" transform="translate(569.189453 0)"/>
      <use xlink:href="#TimesNewRomanPSMT-61" transform="translate(602.490234 0)"/>
      <use xlink:href="#TimesNewRomanPSMT-67" transform="translate(646.875 0)"/>
      <use xlink:href="#TimesNewRomanPSMT-65" transform="translate(696.875 0)"/>
     </g>
    </g>
   </g>
   <g id="matplotlib.axis_2">
    <g id="ytick_1">
     <g id="line2d_11">
      <path d="M 49.678516 252.57984 
L 420.765241 252.57984 
" clip-path="url(#pc38fce289a)" style="fill: none; stroke: #b0b0b0; stroke-opacity: 0.25; stroke-width: 0.45; stroke-linecap: square"/>
     </g>
     <g id="line2d_12">
      <defs>
       <path id="meb2ce07407" d="M 0 0 
L 5 0 
" style="stroke: #000000"/>
      </defs>
      <g>
       <use xlink:href="#meb2ce07407" x="49.678516" y="252.57984" style="stroke: #000000"/>
      </g>
     </g>
     <g id="text_7">
      <!-- 0.000 -->
      <g transform="translate(22.553516 256.225309) scale(0.105 -0.105)">
       <use xlink:href="#TimesNewRomanPSMT-30"/>
       <use xlink:href="#TimesNewRomanPSMT-2e" transform="translate(50 0)"/>
       <use xlink:href="#TimesNewRomanPSMT-30" transform="translate(75 0)"/>
       <use xlink:href="#TimesNewRomanPSMT-30" transform="translate(125 0)"/>
       <use xlink:href="#TimesNewRomanPSMT-30" transform="translate(175 0)"/>
      </g>
     </g>
    </g>
    <g id="ytick_2">
     <g id="line2d_13">
      <path d="M 49.678516 226.65984 
L 420.765241 226.65984 
" clip-path="url(#pc38fce289a)" style="fill: none; stroke: #b0b0b0; stroke-opacity: 0.25; stroke-width: 0.45; stroke-linecap: square"/>
     </g>
     <g id="line2d_14">
      <g>
       <use xlink:href="#meb2ce07407" x="49.678516" y="226.65984" style="stroke: #000000"/>
      </g>
     </g>
     <g id="text_8">
      <!-- 0.005 -->
      <g transform="translate(22.553516 230.305309) scale(0.105 -0.105)">
       <defs>
        <path id="TimesNewRomanPSMT-35" d="M 2778 4238 
L 2534 3706 
L 1259 3706 
L 981 3138 
Q 1809 3016 2294 2522 
Q 2709 2097 2709 1522 
Q 2709 1188 2573 903 
Q 2438 619 2231 419 
Q 2025 219 1772 97 
Q 1413 -75 1034 -75 
Q 653 -75 479 54 
Q 306 184 306 341 
Q 306 428 378 495 
Q 450 563 559 563 
Q 641 563 702 538 
Q 763 513 909 409 
Q 1144 247 1384 247 
Q 1750 247 2026 523 
Q 2303 800 2303 1197 
Q 2303 1581 2056 1914 
Q 1809 2247 1375 2428 
Q 1034 2569 447 2591 
L 1259 4238 
L 2778 4238 
z
" transform="scale(0.015625)"/>
       </defs>
       <use xlink:href="#TimesNewRomanPSMT-30"/>
       <use xlink:href="#TimesNewRomanPSMT-2e" transform="translate(50 0)"/>
       <use xlink:href="#TimesNewRomanPSMT-30" transform="translate(75 0)"/>
       <use xlink:href="#TimesNewRomanPSMT-30" transform="translate(125 0)"/>
       <use xlink:href="#TimesNewRomanPSMT-35" transform="translate(175 0)"/>
      </g>
     </g>
    </g>
    <g id="ytick_3">
     <g id="line2d_15">
      <path d="M 49.678516 200.73984 
L 420.765241 200.73984 
" clip-path="url(#pc38fce289a)" style="fill: none; stroke: #b0b0b0; stroke-opacity: 0.25; stroke-width: 0.45; stroke-linecap: square"/>
     </g>
     <g id="line2d_16">
      <g>
       <use xlink:href="#meb2ce07407" x="49.678516" y="200.73984" style="stroke: #000000"/>
      </g>
     </g>
     <g id="text_9">
      <!-- 0.010 -->
      <g transform="translate(22.553516 204.385309) scale(0.105 -0.105)">
       <use xlink:href="#TimesNewRomanPSMT-30"/>
       <use xlink:href="#TimesNewRomanPSMT-2e" transform="translate(50 0)"/>
       <use xlink:href="#TimesNewRomanPSMT-30" transform="translate(75 0)"/>
       <use xlink:href="#TimesNewRomanPSMT-31" transform="translate(125 0)"/>
       <use xlink:href="#TimesNewRomanPSMT-30" transform="translate(175 0)"/>
      </g>
     </g>
    </g>
    <g id="ytick_4">
     <g id="line2d_17">
      <path d="M 49.678516 174.81984 
L 420.765241 174.81984 
" clip-path="url(#pc38fce289a)" style="fill: none; stroke: #b0b0b0; stroke-opacity: 0.25; stroke-width: 0.45; stroke-linecap: square"/>
     </g>
     <g id="line2d_18">
      <g>
       <use xlink:href="#meb2ce07407" x="49.678516" y="174.81984" style="stroke: #000000"/>
      </g>
     </g>
     <g id="text_10">
      <!-- 0.015 -->
      <g transform="translate(22.553516 178.465309) scale(0.105 -0.105)">
       <use xlink:href="#TimesNewRomanPSMT-30"/>
       <use xlink:href="#TimesNewRomanPSMT-2e" transform="translate(50 0)"/>
       <use xlink:href="#TimesNewRomanPSMT-30" transform="translate(75 0)"/>
       <use xlink:href="#TimesNewRomanPSMT-31" transform="translate(125 0)"/>
       <use xlink:href="#TimesNewRomanPSMT-35" transform="translate(175 0)"/>
      </g>
     </g>
    </g>
    <g id="ytick_5">
     <g id="line2d_19">
      <path d="M 49.678516 148.89984 
L 420.765241 148.89984 
" clip-path="url(#pc38fce289a)" style="fill: none; stroke: #b0b0b0; stroke-opacity: 0.25; stroke-width: 0.45; stroke-linecap: square"/>
     </g>
     <g id="line2d_20">
      <g>
       <use xlink:href="#meb2ce07407" x="49.678516" y="148.89984" style="stroke: #000000"/>
      </g>
     </g>
     <g id="text_11">
      <!-- 0.020 -->
      <g transform="translate(22.553516 152.545309) scale(0.105 -0.105)">
       <use xlink:href="#TimesNewRomanPSMT-30"/>
       <use xlink:href="#TimesNewRomanPSMT-2e" transform="translate(50 0)"/>
       <use xlink:href="#TimesNewRomanPSMT-30" transform="translate(75 0)"/>
       <use xlink:href="#TimesNewRomanPSMT-32" transform="translate(125 0)"/>
       <use xlink:href="#TimesNewRomanPSMT-30" transform="translate(175 0)"/>
      </g>
     </g>
    </g>
    <g id="ytick_6">
     <g id="line2d_21">
      <path d="M 49.678516 122.97984 
L 420.765241 122.97984 
" clip-path="url(#pc38fce289a)" style="fill: none; stroke: #b0b0b0; stroke-opacity: 0.25; stroke-width: 0.45; stroke-linecap: square"/>
     </g>
     <g id="line2d_22">
      <g>
       <use xlink:href="#meb2ce07407" x="49.678516" y="122.97984" style="stroke: #000000"/>
      </g>
     </g>
     <g id="text_12">
      <!-- 0.025 -->
      <g transform="translate(22.553516 126.625309) scale(0.105 -0.105)">
       <use xlink:href="#TimesNewRomanPSMT-30"/>
       <use xlink:href="#TimesNewRomanPSMT-2e" transform="translate(50 0)"/>
       <use xlink:href="#TimesNewRomanPSMT-30" transform="translate(75 0)"/>
       <use xlink:href="#TimesNewRomanPSMT-32" transform="translate(125 0)"/>
       <use xlink:href="#TimesNewRomanPSMT-35" transform="translate(175 0)"/>
      </g>
     </g>
    </g>
    <g id="ytick_7">
     <g id="line2d_23">
      <path d="M 49.678516 97.05984 
L 420.765241 97.05984 
" clip-path="url(#pc38fce289a)" style="fill: none; stroke: #b0b0b0; stroke-opacity: 0.25; stroke-width: 0.45; stroke-linecap: square"/>
     </g>
     <g id="line2d_24">
      <g>
       <use xlink:href="#meb2ce07407" x="49.678516" y="97.05984" style="stroke: #000000"/>
      </g>
     </g>
     <g id="text_13">
      <!-- 0.030 -->
      <g transform="translate(22.553516 100.705309) scale(0.105 -0.105)">
       <defs>
        <path id="TimesNewRomanPSMT-33" d="M 325 3431 
Q 506 3859 782 4092 
Q 1059 4325 1472 4325 
Q 1981 4325 2253 3994 
Q 2459 3747 2459 3466 
Q 2459 3003 1878 2509 
Q 2269 2356 2469 2072 
Q 2669 1788 2669 1403 
Q 2669 853 2319 450 
Q 1863 -75 997 -75 
Q 569 -75 414 31 
Q 259 138 259 259 
Q 259 350 332 419 
Q 406 488 509 488 
Q 588 488 669 463 
Q 722 447 909 348 
Q 1097 250 1169 231 
Q 1284 197 1416 197 
Q 1734 197 1970 444 
Q 2206 691 2206 1028 
Q 2206 1275 2097 1509 
Q 2016 1684 1919 1775 
Q 1784 1900 1550 2001 
Q 1316 2103 1072 2103 
L 972 2103 
L 972 2197 
Q 1219 2228 1467 2375 
Q 1716 2522 1828 2728 
Q 1941 2934 1941 3181 
Q 1941 3503 1739 3701 
Q 1538 3900 1238 3900 
Q 753 3900 428 3381 
L 325 3431 
z
" transform="scale(0.015625)"/>
       </defs>
       <use xlink:href="#TimesNewRomanPSMT-30"/>
       <use xlink:href="#TimesNewRomanPSMT-2e" transform="translate(50 0)"/>
       <use xlink:href="#TimesNewRomanPSMT-30" transform="translate(75 0)"/>
       <use xlink:href="#TimesNewRomanPSMT-33" transform="translate(125 0)"/>
       <use xlink:href="#TimesNewRomanPSMT-30" transform="translate(175 0)"/>
      </g>
     </g>
    </g>
    <g id="ytick_8">
     <g id="line2d_25">
      <path d="M 49.678516 71.13984 
L 420.765241 71.13984 
" clip-path="url(#pc38fce289a)" style="fill: none; stroke: #b0b0b0; stroke-opacity: 0.25; stroke-width: 0.45; stroke-linecap: square"/>
     </g>
     <g id="line2d_26">
      <g>
       <use xlink:href="#meb2ce07407" x="49.678516" y="71.13984" style="stroke: #000000"/>
      </g>
     </g>
     <g id="text_14">
      <!-- 0.035 -->
      <g transform="translate(22.553516 74.785309) scale(0.105 -0.105)">
       <use xlink:href="#TimesNewRomanPSMT-30"/>
       <use xlink:href="#TimesNewRomanPSMT-2e" transform="translate(50 0)"/>
       <use xlink:href="#TimesNewRomanPSMT-30" transform="translate(75 0)"/>
       <use xlink:href="#TimesNewRomanPSMT-33" transform="translate(125 0)"/>
       <use xlink:href="#TimesNewRomanPSMT-35" transform="translate(175 0)"/>
      </g>
     </g>
    </g>
    <g id="text_15">
     <!-- Retained MAE -->
     <g transform="translate(15.879688 191.749856) rotate(-90) scale(0.125 -0.125)">
      <defs>
       <path id="TimesNewRomanPSMT-4d" d="M 2619 0 
L 981 3566 
L 981 734 
Q 981 344 1066 247 
Q 1181 116 1431 116 
L 1581 116 
L 1581 0 
L 106 0 
L 106 116 
L 256 116 
Q 525 116 638 278 
Q 706 378 706 734 
L 706 3503 
Q 706 3784 644 3909 
Q 600 4000 483 4061 
Q 366 4122 106 4122 
L 106 4238 
L 1306 4238 
L 2844 922 
L 4356 4238 
L 5556 4238 
L 5556 4122 
L 5409 4122 
Q 5138 4122 5025 3959 
Q 4956 3859 4956 3503 
L 4956 734 
Q 4956 344 5044 247 
Q 5159 116 5409 116 
L 5556 116 
L 5556 0 
L 3756 0 
L 3756 116 
L 3906 116 
Q 4178 116 4288 278 
Q 4356 378 4356 734 
L 4356 3566 
L 2722 0 
L 2619 0 
z
" transform="scale(0.015625)"/>
       <path id="TimesNewRomanPSMT-41" d="M 2928 1419 
L 1288 1419 
L 1000 750 
Q 894 503 894 381 
Q 894 284 986 211 
Q 1078 138 1384 116 
L 1384 0 
L 50 0 
L 50 116 
Q 316 163 394 238 
Q 553 388 747 847 
L 2238 4334 
L 2347 4334 
L 3822 809 
Q 4000 384 4145 257 
Q 4291 131 4550 116 
L 4550 0 
L 2878 0 
L 2878 116 
Q 3131 128 3220 200 
Q 3309 272 3309 375 
Q 3309 513 3184 809 
L 2928 1419 
z
M 2841 1650 
L 2122 3363 
L 1384 1650 
L 2841 1650 
z
" transform="scale(0.015625)"/>
       <path id="TimesNewRomanPSMT-45" d="M 1338 4006 
L 1338 2331 
L 2269 2331 
Q 2631 2331 2753 2441 
Q 2916 2584 2934 2947 
L 3050 2947 
L 3050 1472 
L 2934 1472 
Q 2891 1781 2847 1869 
Q 2791 1978 2662 2040 
Q 2534 2103 2269 2103 
L 1338 2103 
L 1338 706 
Q 1338 425 1363 364 
Q 1388 303 1450 267 
Q 1513 231 1688 231 
L 2406 231 
Q 2766 231 2928 281 
Q 3091 331 3241 478 
Q 3434 672 3638 1063 
L 3763 1063 
L 3397 0 
L 131 0 
L 131 116 
L 281 116 
Q 431 116 566 188 
Q 666 238 702 338 
Q 738 438 738 747 
L 738 3500 
Q 738 3903 656 3997 
Q 544 4122 281 4122 
L 131 4122 
L 131 4238 
L 3397 4238 
L 3444 3309 
L 3322 3309 
Q 3256 3644 3176 3769 
Q 3097 3894 2941 3959 
Q 2816 4006 2500 4006 
L 1338 4006 
z
" transform="scale(0.015625)"/>
      </defs>
      <use xlink:href="#TimesNewRomanPSMT-52"/>
      <use xlink:href="#TimesNewRomanPSMT-65" transform="translate(66.699219 0)"/>
      <use xlink:href="#TimesNewRomanPSMT-74" transform="translate(111.083984 0)"/>
      <use xlink:href="#TimesNewRomanPSMT-61" transform="translate(138.867188 0)"/>
      <use xlink:href="#TimesNewRomanPSMT-69" transform="translate(183.251953 0)"/>
      <use xlink:href="#TimesNewRomanPSMT-6e" transform="translate(211.035156 0)"/>
      <use xlink:href="#TimesNewRomanPSMT-65" transform="translate(261.035156 0)"/>
      <use xlink:href="#TimesNewRomanPSMT-64" transform="translate(305.419922 0)"/>
      <use xlink:href="#TimesNewRomanPSMT-20" transform="translate(355.419922 0)"/>
      <use xlink:href="#TimesNewRomanPSMT-4d" transform="translate(380.419922 0)"/>
      <use xlink:href="#TimesNewRomanPSMT-41" transform="translate(469.335938 0)"/>
      <use xlink:href="#TimesNewRomanPSMT-45" transform="translate(541.552734 0)"/>
     </g>
    </g>
   </g>
   <g id="line2d_27">
    <path d="M 57.573978 245.233783 
L 77.312633 241.309936 
L 97.051289 237.177015 
L 116.789945 233.187853 
L 136.5286 229.27846 
L 156.267256 225.300273 
L 176.005912 221.223805 
L 195.744567 217.045526 
L 215.483223 212.572757 
L 235.221878 207.745219 
L 254.960534 202.611872 
L 274.69919 196.956923 
L 294.437845 190.655617 
L 314.176501 183.275222 
L 333.915157 174.444257 
L 353.653812 163.545854 
L 373.392468 149.437097 
L 393.131123 128.401146 
L 412.869779 76.541517 
" clip-path="url(#pc38fce289a)" style="fill: none; stroke-dasharray: 6.29,2.72; stroke-dashoffset: 0; stroke: #111111; stroke-width: 1.7"/>
   </g>
   <g id="patch_3">
    <path d="M 49.678516 252.57984 
L 49.678516 55.58784 
" style="fill: none; stroke: #000000; stroke-width: 1.15; stroke-linejoin: miter; stroke-linecap: square"/>
   </g>
   <g id="patch_4">
    <path d="M 420.765241 252.57984 
L 420.765241 55.58784 
" style="fill: none; stroke: #000000; stroke-width: 1.15; stroke-linejoin: miter; stroke-linecap: square"/>
   </g>
   <g id="patch_5">
    <path d="M 49.678516 252.57984 
L 420.765241 252.57984 
" style="fill: none; stroke: #000000; stroke-width: 1.15; stroke-linejoin: miter; stroke-linecap: square"/>
   </g>
   <g id="patch_6">
    <path d="M 49.678516 55.58784 
L 420.765241 55.58784 
" style="fill: none; stroke: #000000; stroke-width: 1.15; stroke-linejoin: miter; stroke-linecap: square"/>
   </g>
   <g id="line2d_28">
    <path d="M 57.573978 164.368291 
L 77.312633 160.760312 
L 97.051289 156.603505 
L 116.789945 150.502649 
L 136.5286 146.867895 
L 156.267256 146.087122 
L 176.005912 143.982777 
L 195.744567 141.945134 
L 215.483223 137.70929 
L 235.221878 133.524258 
L 254.960534 129.295908 
L 274.69919 124.996835 
L 294.437845 120.363557 
L 314.176501 115.915474 
L 333.915157 108.513365 
L 353.653812 100.904653 
L 373.392468 95.022688 
L 393.131123 88.300844 
L 412.869779 76.541517 
" clip-path="url(#pc38fce289a)" style="fill: none; stroke-dasharray: 8.64,2.16,1.35,2.16; stroke-dashoffset: 0; stroke: #9ca3af; stroke-opacity: 0.72; stroke-width: 1.35"/>
    <defs>
     <path id="m2fbb2cac42" d="M 0 1.75 
C 0.464105 1.75 0.909265 1.565609 1.237437 1.237437 
C 1.565609 0.909265 1.75 0.464105 1.75 0 
C 1.75 -0.464105 1.565609 -0.909265 1.237437 -1.237437 
C 0.909265 -1.565609 0.464105 -1.75 0 -1.75 
C -0.464105 -1.75 -0.909265 -1.565609 -1.237437 -1.237437 
C -1.565609 -0.909265 -1.75 -0.464105 -1.75 0 
C -1.75 0.464105 -1.565609 0.909265 -1.237437 1.237437 
C -0.909265 1.565609 -0.464105 1.75 0 1.75 
z
" style="stroke: #9ca3af; stroke-opacity: 0.72"/>
    </defs>
    <g clip-path="url(#pc38fce289a)">
     <use xlink:href="#m2fbb2cac42" x="57.573978" y="164.368291" style="fill: #9ca3af; fill-opacity: 0.72; stroke: #9ca3af; stroke-opacity: 0.72"/>
     <use xlink:href="#m2fbb2cac42" x="77.312633" y="160.760312" style="fill: #9ca3af; fill-opacity: 0.72; stroke: #9ca3af; stroke-opacity: 0.72"/>
     <use xlink:href="#m2fbb2cac42" x="97.051289" y="156.603505" style="fill: #9ca3af; fill-opacity: 0.72; stroke: #9ca3af; stroke-opacity: 0.72"/>
     <use xlink:href="#m2fbb2cac42" x="116.789945" y="150.502649" style="fill: #9ca3af; fill-opacity: 0.72; stroke: #9ca3af; stroke-opacity: 0.72"/>
     <use xlink:href="#m2fbb2cac42" x="136.5286" y="146.867895" style="fill: #9ca3af; fill-opacity: 0.72; stroke: #9ca3af; stroke-opacity: 0.72"/>
     <use xlink:href="#m2fbb2cac42" x="156.267256" y="146.087122" style="fill: #9ca3af; fill-opacity: 0.72; stroke: #9ca3af; stroke-opacity: 0.72"/>
     <use xlink:href="#m2fbb2cac42" x="176.005912" y="143.982777" style="fill: #9ca3af; fill-opacity: 0.72; stroke: #9ca3af; stroke-opacity: 0.72"/>
     <use xlink:href="#m2fbb2cac42" x="195.744567" y="141.945134" style="fill: #9ca3af; fill-opacity: 0.72; stroke: #9ca3af; stroke-opacity: 0.72"/>
     <use xlink:href="#m2fbb2cac42" x="215.483223" y="137.70929" style="fill: #9ca3af; fill-opacity: 0.72; stroke: #9ca3af; stroke-opacity: 0.72"/>
     <use xlink:href="#m2fbb2cac42" x="235.221878" y="133.524258" style="fill: #9ca3af; fill-opacity: 0.72; stroke: #9ca3af; stroke-opacity: 0.72"/>
     <use xlink:href="#m2fbb2cac42" x="254.960534" y="129.295908" style="fill: #9ca3af; fill-opacity: 0.72; stroke: #9ca3af; stroke-opacity: 0.72"/>
     <use xlink:href="#m2fbb2cac42" x="274.69919" y="124.996835" style="fill: #9ca3af; fill-opacity: 0.72; stroke: #9ca3af; stroke-opacity: 0.72"/>
     <use xlink:href="#m2fbb2cac42" x="294.437845" y="120.363557" style="fill: #9ca3af; fill-opacity: 0.72; stroke: #9ca3af; stroke-opacity: 0.72"/>
     <use xlink:href="#m2fbb2cac42" x="314.176501" y="115.915474" style="fill: #9ca3af; fill-opacity: 0.72; stroke: #9ca3af; stroke-opacity: 0.72"/>
     <use xlink:href="#m2fbb2cac42" x="333.915157" y="108.513365" style="fill: #9ca3af; fill-opacity: 0.72; stroke: #9ca3af; stroke-opacity: 0.72"/>
     <use xlink:href="#m2fbb2cac42" x="353.653812" y="100.904653" style="fill: #9ca3af; fill-opacity: 0.72; stroke: #9ca3af; stroke-opacity: 0.72"/>
     <use xlink:href="#m2fbb2cac42" x="373.392468" y="95.022688" style="fill: #9ca3af; fill-opacity: 0.72; stroke: #9ca3af; stroke-opacity: 0.72"/>
     <use xlink:href="#m2fbb2cac42" x="393.131123" y="88.300844" style="fill: #9ca3af; fill-opacity: 0.72; stroke: #9ca3af; stroke-opacity: 0.72"/>
     <use xlink:href="#m2fbb2cac42" x="412.869779" y="76.541517" style="fill: #9ca3af; fill-opacity: 0.72; stroke: #9ca3af; stroke-opacity: 0.72"/>
    </g>
   </g>
   <g id="line2d_29">
    <path d="M 57.573978 192.423158 
L 77.312633 182.740419 
L 97.051289 170.640357 
L 116.789945 155.006644 
L 136.5286 140.706243 
L 156.267256 126.708981 
L 176.005912 118.363948 
L 195.744567 117.151766 
L 215.483223 118.227788 
L 235.221878 112.184125 
L 254.960534 101.255842 
L 274.69919 92.780883 
L 294.437845 89.01946 
L 314.176501 82.444413 
L 333.915157 77.02631 
L 353.653812 70.736355 
L 373.392468 66.930241 
L 393.131123 72.104502 
L 412.869779 76.541517 
" clip-path="url(#pc38fce289a)" style="fill: none; stroke: #4c78a8; stroke-opacity: 0.72; stroke-width: 1.35; stroke-linecap: square"/>
    <defs>
     <path id="m49ccab3e5f" d="M 0 1.75 
C 0.464105 1.75 0.909265 1.565609 1.237437 1.237437 
C 1.565609 0.909265 1.75 0.464105 1.75 0 
C 1.75 -0.464105 1.565609 -0.909265 1.237437 -1.237437 
C 0.909265 -1.565609 0.464105 -1.75 0 -1.75 
C -0.464105 -1.75 -0.909265 -1.565609 -1.237437 -1.237437 
C -1.565609 -0.909265 -1.75 -0.464105 -1.75 0 
C -1.75 0.464105 -1.565609 0.909265 -1.237437 1.237437 
C -0.909265 1.565609 -0.464105 1.75 0 1.75 
z
" style="stroke: #4c78a8; stroke-opacity: 0.72"/>
    </defs>
    <g clip-path="url(#pc38fce289a)">
     <use xlink:href="#m49ccab3e5f" x="57.573978" y="192.423158" style="fill: #4c78a8; fill-opacity: 0.72; stroke: #4c78a8; stroke-opacity: 0.72"/>
     <use xlink:href="#m49ccab3e5f" x="77.312633" y="182.740419" style="fill: #4c78a8; fill-opacity: 0.72; stroke: #4c78a8; stroke-opacity: 0.72"/>
     <use xlink:href="#m49ccab3e5f" x="97.051289" y="170.640357" style="fill: #4c78a8; fill-opacity: 0.72; stroke: #4c78a8; stroke-opacity: 0.72"/>
     <use xlink:href="#m49ccab3e5f" x="116.789945" y="155.006644" style="fill: #4c78a8; fill-opacity: 0.72; stroke: #4c78a8; stroke-opacity: 0.72"/>
     <use xlink:href="#m49ccab3e5f" x="136.5286" y="140.706243" style="fill: #4c78a8; fill-opacity: 0.72; stroke: #4c78a8; stroke-opacity: 0.72"/>
     <use xlink:href="#m49ccab3e5f" x="156.267256" y="126.708981" style="fill: #4c78a8; fill-opacity: 0.72; stroke: #4c78a8; stroke-opacity: 0.72"/>
     <use xlink:href="#m49ccab3e5f" x="176.005912" y="118.363948" style="fill: #4c78a8; fill-opacity: 0.72; stroke: #4c78a8; stroke-opacity: 0.72"/>
     <use xlink:href="#m49ccab3e5f" x="195.744567" y="117.151766" style="fill: #4c78a8; fill-opacity: 0.72; stroke: #4c78a8; stroke-opacity: 0.72"/>
     <use xlink:href="#m49ccab3e5f" x="215.483223" y="118.227788" style="fill: #4c78a8; fill-opacity: 0.72; stroke: #4c78a8; stroke-opacity: 0.72"/>
     <use xlink:href="#m49ccab3e5f" x="235.221878" y="112.184125" style="fill: #4c78a8; fill-opacity: 0.72; stroke: #4c78a8; stroke-opacity: 0.72"/>
     <use xlink:href="#m49ccab3e5f" x="254.960534" y="101.255842" style="fill: #4c78a8; fill-opacity: 0.72; stroke: #4c78a8; stroke-opacity: 0.72"/>
     <use xlink:href="#m49ccab3e5f" x="274.69919" y="92.780883" style="fill: #4c78a8; fill-opacity: 0.72; stroke: #4c78a8; stroke-opacity: 0.72"/>
     <use xlink:href="#m49ccab3e5f" x="294.437845" y="89.01946" style="fill: #4c78a8; fill-opacity: 0.72; stroke: #4c78a8; stroke-opacity: 0.72"/>
     <use xlink:href="#m49ccab3e5f" x="314.176501" y="82.444413" style="fill: #4c78a8; fill-opacity: 0.72; stroke: #4c78a8; stroke-opacity: 0.72"/>
     <use xlink:href="#m49ccab3e5f" x="333.915157" y="77.02631" style="fill: #4c78a8; fill-opacity: 0.72; stroke: #4c78a8; stroke-opacity: 0.72"/>
     <use xlink:href="#m49ccab3e5f" x="353.653812" y="70.736355" style="fill: #4c78a8; fill-opacity: 0.72; stroke: #4c78a8; stroke-opacity: 0.72"/>
     <use xlink:href="#m49ccab3e5f" x="373.392468" y="66.930241" style="fill: #4c78a8; fill-opacity: 0.72; stroke: #4c78a8; stroke-opacity: 0.72"/>
     <use xlink:href="#m49ccab3e5f" x="393.131123" y="72.104502" style="fill: #4c78a8; fill-opacity: 0.72; stroke: #4c78a8; stroke-opacity: 0.72"/>
     <use xlink:href="#m49ccab3e5f" x="412.869779" y="76.541517" style="fill: #4c78a8; fill-opacity: 0.72; stroke: #4c78a8; stroke-opacity: 0.72"/>
    </g>
   </g>
   <g id="line2d_30">
    <path d="M 57.573978 169.155381 
L 77.312633 171.474187 
L 97.051289 169.846917 
L 116.789945 176.022642 
L 136.5286 176.981999 
L 156.267256 174.600515 
L 176.005912 168.902495 
L 195.744567 160.318169 
L 215.483223 149.337162 
L 235.221878 136.499107 
L 254.960534 123.15104 
L 274.69919 115.003056 
L 294.437845 106.153508 
L 314.176501 100.135794 
L 333.915157 91.550874 
L 353.653812 86.465135 
L 373.392468 85.453928 
L 393.131123 81.320466 
L 412.869779 76.541517 
" clip-path="url(#pc38fce289a)" style="fill: none; stroke: #72b7b2; stroke-opacity: 0.72; stroke-width: 1.35; stroke-linecap: square"/>
    <defs>
     <path id="m1a6b746573" d="M 0 1.75 
C 0.464105 1.75 0.909265 1.565609 1.237437 1.237437 
C 1.565609 0.909265 1.75 0.464105 1.75 0 
C 1.75 -0.464105 1.565609 -0.909265 1.237437 -1.237437 
C 0.909265 -1.565609 0.464105 -1.75 0 -1.75 
C -0.464105 -1.75 -0.909265 -1.565609 -1.237437 -1.237437 
C -1.565609 -0.909265 -1.75 -0.464105 -1.75 0 
C -1.75 0.464105 -1.565609 0.909265 -1.237437 1.237437 
C -0.909265 1.565609 -0.464105 1.75 0 1.75 
z
" style="stroke: #72b7b2; stroke-opacity: 0.72"/>
    </defs>
    <g clip-path="url(#pc38fce289a)">
     <use xlink:href="#m1a6b746573" x="57.573978" y="169.155381" style="fill: #72b7b2; fill-opacity: 0.72; stroke: #72b7b2; stroke-opacity: 0.72"/>
     <use xlink:href="#m1a6b746573" x="77.312633" y="171.474187" style="fill: #72b7b2; fill-opacity: 0.72; stroke: #72b7b2; stroke-opacity: 0.72"/>
     <use xlink:href="#m1a6b746573" x="97.051289" y="169.846917" style="fill: #72b7b2; fill-opacity: 0.72; stroke: #72b7b2; stroke-opacity: 0.72"/>
     <use xlink:href="#m1a6b746573" x="116.789945" y="176.022642" style="fill: #72b7b2; fill-opacity: 0.72; stroke: #72b7b2; stroke-opacity: 0.72"/>
     <use xlink:href="#m1a6b746573" x="136.5286" y="176.981999" style="fill: #72b7b2; fill-opacity: 0.72; stroke: #72b7b2; stroke-opacity: 0.72"/>
     <use xlink:href="#m1a6b746573" x="156.267256" y="174.600515" style="fill: #72b7b2; fill-opacity: 0.72; stroke: #72b7b2; stroke-opacity: 0.72"/>
     <use xlink:href="#m1a6b746573" x="176.005912" y="168.902495" style="fill: #72b7b2; fill-opacity: 0.72; stroke: #72b7b2; stroke-opacity: 0.72"/>
     <use xlink:href="#m1a6b746573" x="195.744567" y="160.318169" style="fill: #72b7b2; fill-opacity: 0.72; stroke: #72b7b2; stroke-opacity: 0.72"/>
     <use xlink:href="#m1a6b746573" x="215.483223" y="149.337162" style="fill: #72b7b2; fill-opacity: 0.72; stroke: #72b7b2; stroke-opacity: 0.72"/>
     <use xlink:href="#m1a6b746573" x="235.221878" y="136.499107" style="fill: #72b7b2; fill-opacity: 0.72; stroke: #72b7b2; stroke-opacity: 0.72"/>
     <use xlink:href="#m1a6b746573" x="254.960534" y="123.15104" style="fill: #72b7b2; fill-opacity: 0.72; stroke: #72b7b2; stroke-opacity: 0.72"/>
     <use xlink:href="#m1a6b746573" x="274.69919" y="115.003056" style="fill: #72b7b2; fill-opacity: 0.72; stroke: #72b7b2; stroke-opacity: 0.72"/>
     <use xlink:href="#m1a6b746573" x="294.437845" y="106.153508" style="fill: #72b7b2; fill-opacity: 0.72; stroke: #72b7b2; stroke-opacity: 0.72"/>
     <use xlink:href="#m1a6b746573" x="314.176501" y="100.135794" style="fill: #72b7b2; fill-opacity: 0.72; stroke: #72b7b2; stroke-opacity: 0.72"/>
     <use xlink:href="#m1a6b746573" x="333.915157" y="91.550874" style="fill: #72b7b2; fill-opacity: 0.72; stroke: #72b7b2; stroke-opacity: 0.72"/>
     <use xlink:href="#m1a6b746573" x="353.653812" y="86.465135" style="fill: #72b7b2; fill-opacity: 0.72; stroke: #72b7b2; stroke-opacity: 0.72"/>
     <use xlink:href="#m1a6b746573" x="373.392468" y="85.453928" style="fill: #72b7b2; fill-opacity: 0.72; stroke: #72b7b2; stroke-opacity: 0.72"/>
     <use xlink:href="#m1a6b746573" x="393.131123" y="81.320466" style="fill: #72b7b2; fill-opacity: 0.72; stroke: #72b7b2; stroke-opacity: 0.72"/>
     <use xlink:href="#m1a6b746573" x="412.869779" y="76.541517" style="fill: #72b7b2; fill-opacity: 0.72; stroke: #72b7b2; stroke-opacity: 0.72"/>
    </g>
   </g>
   <g id="line2d_31">
    <path d="M 57.573978 181.706329 
L 77.312633 184.720474 
L 97.051289 184.053866 
L 116.789945 180.670217 
L 136.5286 180.057474 
L 156.267256 174.872074 
L 176.005912 169.642694 
L 195.744567 160.93097 
L 215.483223 148.646916 
L 235.221878 136.765923 
L 254.960534 128.925307 
L 274.69919 121.665651 
L 294.437845 116.255161 
L 314.176501 108.257889 
L 333.915157 101.141427 
L 353.653812 94.834713 
L 373.392468 89.652208 
L 393.131123 86.461821 
L 412.869779 76.541517 
" clip-path="url(#pc38fce289a)" style="fill: none; stroke: #3a9d9a; stroke-opacity: 0.72; stroke-width: 1.35; stroke-linecap: square"/>
    <defs>
     <path id="md71de4e284" d="M 0 1.75 
C 0.464105 1.75 0.909265 1.565609 1.237437 1.237437 
C 1.565609 0.909265 1.75 0.464105 1.75 0 
C 1.75 -0.464105 1.565609 -0.909265 1.237437 -1.237437 
C 0.909265 -1.565609 0.464105 -1.75 0 -1.75 
C -0.464105 -1.75 -0.909265 -1.565609 -1.237437 -1.237437 
C -1.565609 -0.909265 -1.75 -0.464105 -1.75 0 
C -1.75 0.464105 -1.565609 0.909265 -1.237437 1.237437 
C -0.909265 1.565609 -0.464105 1.75 0 1.75 
z
" style="stroke: #3a9d9a; stroke-opacity: 0.72"/>
    </defs>
    <g clip-path="url(#pc38fce289a)">
     <use xlink:href="#md71de4e284" x="57.573978" y="181.706329" style="fill: #3a9d9a; fill-opacity: 0.72; stroke: #3a9d9a; stroke-opacity: 0.72"/>
     <use xlink:href="#md71de4e284" x="77.312633" y="184.720474" style="fill: #3a9d9a; fill-opacity: 0.72; stroke: #3a9d9a; stroke-opacity: 0.72"/>
     <use xlink:href="#md71de4e284" x="97.051289" y="184.053866" style="fill: #3a9d9a; fill-opacity: 0.72; stroke: #3a9d9a; stroke-opacity: 0.72"/>
     <use xlink:href="#md71de4e284" x="116.789945" y="180.670217" style="fill: #3a9d9a; fill-opacity: 0.72; stroke: #3a9d9a; stroke-opacity: 0.72"/>
     <use xlink:href="#md71de4e284" x="136.5286" y="180.057474" style="fill: #3a9d9a; fill-opacity: 0.72; stroke: #3a9d9a; stroke-opacity: 0.72"/>
     <use xlink:href="#md71de4e284" x="156.267256" y="174.872074" style="fill: #3a9d9a; fill-opacity: 0.72; stroke: #3a9d9a; stroke-opacity: 0.72"/>
     <use xlink:href="#md71de4e284" x="176.005912" y="169.642694" style="fill: #3a9d9a; fill-opacity: 0.72; stroke: #3a9d9a; stroke-opacity: 0.72"/>
     <use xlink:href="#md71de4e284" x="195.744567" y="160.93097" style="fill: #3a9d9a; fill-opacity: 0.72; stroke: #3a9d9a; stroke-opacity: 0.72"/>
     <use xlink:href="#md71de4e284" x="215.483223" y="148.646916" style="fill: #3a9d9a; fill-opacity: 0.72; stroke: #3a9d9a; stroke-opacity: 0.72"/>
     <use xlink:href="#md71de4e284" x="235.221878" y="136.765923" style="fill: #3a9d9a; fill-opacity: 0.72; stroke: #3a9d9a; stroke-opacity: 0.72"/>
     <use xlink:href="#md71de4e284" x="254.960534" y="128.925307" style="fill: #3a9d9a; fill-opacity: 0.72; stroke: #3a9d9a; stroke-opacity: 0.72"/>
     <use xlink:href="#md71de4e284" x="274.69919" y="121.665651" style="fill: #3a9d9a; fill-opacity: 0.72; stroke: #3a9d9a; stroke-opacity: 0.72"/>
     <use xlink:href="#md71de4e284" x="294.437845" y="116.255161" style="fill: #3a9d9a; fill-opacity: 0.72; stroke: #3a9d9a; stroke-opacity: 0.72"/>
     <use xlink:href="#md71de4e284" x="314.176501" y="108.257889" style="fill: #3a9d9a; fill-opacity: 0.72; stroke: #3a9d9a; stroke-opacity: 0.72"/>
     <use xlink:href="#md71de4e284" x="333.915157" y="101.141427" style="fill: #3a9d9a; fill-opacity: 0.72; stroke: #3a9d9a; stroke-opacity: 0.72"/>
     <use xlink:href="#md71de4e284" x="353.653812" y="94.834713" style="fill: #3a9d9a; fill-opacity: 0.72; stroke: #3a9d9a; stroke-opacity: 0.72"/>
     <use xlink:href="#md71de4e284" x="373.392468" y="89.652208" style="fill: #3a9d9a; fill-opacity: 0.72; stroke: #3a9d9a; stroke-opacity: 0.72"/>
     <use xlink:href="#md71de4e284" x="393.131123" y="86.461821" style="fill: #3a9d9a; fill-opacity: 0.72; stroke: #3a9d9a; stroke-opacity: 0.72"/>
     <use xlink:href="#md71de4e284" x="412.869779" y="76.541517" style="fill: #3a9d9a; fill-opacity: 0.72; stroke: #3a9d9a; stroke-opacity: 0.72"/>
    </g>
   </g>
   <g id="text_16">
    <!-- (a) -->
    <g transform="translate(49.678516 43.942419) scale(0.13 -0.13)">
     <defs>
      <path id="TimesNewRomanPS-BoldMT-28" d="M 2056 4334 
L 2056 4191 
Q 1731 3978 1578 3775 
Q 1366 3494 1247 3053 
Q 1097 2506 1097 1525 
Q 1097 600 1233 87 
Q 1369 -425 1603 -741 
Q 1766 -959 2056 -1125 
L 2056 -1281 
Q 1303 -1028 779 -248 
Q 256 531 256 1544 
Q 256 2544 778 3314 
Q 1300 4084 2056 4334 
z
" transform="scale(0.015625)"/>
      <path id="TimesNewRomanPS-BoldMT-61" d="M 1828 431 
Q 1294 -41 869 -41 
Q 619 -41 453 123 
Q 288 288 288 534 
Q 288 869 575 1136 
Q 863 1403 1828 1847 
L 1828 2141 
Q 1828 2472 1792 2558 
Q 1756 2644 1656 2708 
Q 1556 2772 1431 2772 
Q 1228 2772 1097 2681 
Q 1016 2625 1016 2550 
Q 1016 2484 1103 2388 
Q 1222 2253 1222 2128 
Q 1222 1975 1108 1867 
Q 994 1759 809 1759 
Q 613 1759 480 1878 
Q 347 1997 347 2156 
Q 347 2381 525 2586 
Q 703 2791 1022 2900 
Q 1341 3009 1684 3009 
Q 2100 3009 2342 2832 
Q 2584 2656 2656 2450 
Q 2700 2319 2700 1847 
L 2700 713 
Q 2700 513 2715 461 
Q 2731 409 2762 384 
Q 2794 359 2834 359 
Q 2916 359 3000 475 
L 3094 400 
Q 2938 169 2770 64 
Q 2603 -41 2391 -41 
Q 2141 -41 2000 76 
Q 1859 194 1828 431 
z
M 1828 659 
L 1828 1638 
Q 1450 1416 1266 1163 
Q 1144 994 1144 822 
Q 1144 678 1247 569 
Q 1325 484 1466 484 
Q 1622 484 1828 659 
z
" transform="scale(0.015625)"/>
      <path id="TimesNewRomanPS-BoldMT-29" d="M 78 -1281 
L 78 -1138 
Q 403 -922 556 -719 
Q 766 -438 888 0 
Q 1038 550 1038 1531 
Q 1038 2456 902 2967 
Q 766 3478 531 3794 
Q 369 4013 78 4178 
L 78 4334 
Q 831 4081 1354 3301 
Q 1878 2522 1878 1509 
Q 1878 513 1354 -257 
Q 831 -1028 78 -1281 
z
" transform="scale(0.015625)"/>
     </defs>
     <use xlink:href="#TimesNewRomanPS-BoldMT-28"/>
     <use xlink:href="#TimesNewRomanPS-BoldMT-61" transform="translate(33.300781 0)"/>
     <use xlink:href="#TimesNewRomanPS-BoldMT-29" transform="translate(83.300781 0)"/>
    </g>
   </g>
   <g id="line2d_32">
    <path d="M 57.573978 194.449063 
L 77.312633 186.129932 
L 97.051289 177.303434 
L 116.789945 173.623665 
L 136.5286 171.291463 
L 156.267256 167.429636 
L 176.005912 165.86527 
L 195.744567 159.741543 
L 215.483223 151.15272 
L 235.221878 142.171419 
L 254.960534 133.189167 
L 274.69919 125.520513 
L 294.437845 119.352197 
L 314.176501 113.801537 
L 333.915157 104.53182 
L 353.653812 98.963376 
L 373.392468 94.36356 
L 393.131123 87.766441 
L 412.869779 76.541517 
" clip-path="url(#pc38fce289a)" style="fill: none; stroke: #e45756; stroke-opacity: 0.98; stroke-width: 2.25; stroke-linecap: square"/>
    <defs>
     <path id="m0cabc45928" d="M 0 2 
C 0.530406 2 1.03916 1.789267 1.414214 1.414214 
C 1.789267 1.03916 2 0.530406 2 0 
C 2 -0.530406 1.789267 -1.03916 1.414214 -1.414214 
C 1.03916 -1.789267 0.530406 -2 0 -2 
C -0.530406 -2 -1.03916 -1.789267 -1.414214 -1.414214 
C -1.789267 -1.03916 -2 -0.530406 -2 0 
C -2 0.530406 -1.789267 1.03916 -1.414214 1.414214 
C -1.03916 1.789267 -0.530406 2 0 2 
z
" style="stroke: #e45756; stroke-opacity: 0.98"/>
    </defs>
    <g clip-path="url(#pc38fce289a)">
     <use xlink:href="#m0cabc45928" x="57.573978" y="194.449063" style="fill: #e45756; fill-opacity: 0.98; stroke: #e45756; stroke-opacity: 0.98"/>
     <use xlink:href="#m0cabc45928" x="77.312633" y="186.129932" style="fill: #e45756; fill-opacity: 0.98; stroke: #e45756; stroke-opacity: 0.98"/>
     <use xlink:href="#m0cabc45928" x="97.051289" y="177.303434" style="fill: #e45756; fill-opacity: 0.98; stroke: #e45756; stroke-opacity: 0.98"/>
     <use xlink:href="#m0cabc45928" x="116.789945" y="173.623665" style="fill: #e45756; fill-opacity: 0.98; stroke: #e45756; stroke-opacity: 0.98"/>
     <use xlink:href="#m0cabc45928" x="136.5286" y="171.291463" style="fill: #e45756; fill-opacity: 0.98; stroke: #e45756; stroke-opacity: 0.98"/>
     <use xlink:href="#m0cabc45928" x="156.267256" y="167.429636" style="fill: #e45756; fill-opacity: 0.98; stroke: #e45756; stroke-opacity: 0.98"/>
     <use xlink:href="#m0cabc45928" x="176.005912" y="165.86527" style="fill: #e45756; fill-opacity: 0.98; stroke: #e45756; stroke-opacity: 0.98"/>
     <use xlink:href="#m0cabc45928" x="195.744567" y="159.741543" style="fill: #e45756; fill-opacity: 0.98; stroke: #e45756; stroke-opacity: 0.98"/>
     <use xlink:href="#m0cabc45928" x="215.483223" y="151.15272" style="fill: #e45756; fill-opacity: 0.98; stroke: #e45756; stroke-opacity: 0.98"/>
     <use xlink:href="#m0cabc45928" x="235.221878" y="142.171419" style="fill: #e45756; fill-opacity: 0.98; stroke: #e45756; stroke-opacity: 0.98"/>
     <use xlink:href="#m0cabc45928" x="254.960534" y="133.189167" style="fill: #e45756; fill-opacity: 0.98; stroke: #e45756; stroke-opacity: 0.98"/>
     <use xlink:href="#m0cabc45928" x="274.69919" y="125.520513" style="fill: #e45756; fill-opacity: 0.98; stroke: #e45756; stroke-opacity: 0.98"/>
     <use xlink:href="#m0cabc45928" x="294.437845" y="119.352197" style="fill: #e45756; fill-opacity: 0.98; stroke: #e45756; stroke-opacity: 0.98"/>
     <use xlink:href="#m0cabc45928" x="314.176501" y="113.801537" style="fill: #e45756; fill-opacity: 0.98; stroke: #e45756; stroke-opacity: 0.98"/>
     <use xlink:href="#m0cabc45928" x="333.915157" y="104.53182" style="fill: #e45756; fill-opacity: 0.98; stroke: #e45756; stroke-opacity: 0.98"/>
     <use xlink:href="#m0cabc45928" x="353.653812" y="98.963376" style="fill: #e45756; fill-opacity: 0.98; stroke: #e45756; stroke-opacity: 0.98"/>
     <use xlink:href="#m0cabc45928" x="373.392468" y="94.36356" style="fill: #e45756; fill-opacity: 0.98; stroke: #e45756; stroke-opacity: 0.98"/>
     <use xlink:href="#m0cabc45928" x="393.131123" y="87.766441" style="fill: #e45756; fill-opacity: 0.98; stroke: #e45756; stroke-opacity: 0.98"/>
     <use xlink:href="#m0cabc45928" x="412.869779" y="76.541517" style="fill: #e45756; fill-opacity: 0.98; stroke: #e45756; stroke-opacity: 0.98"/>
    </g>
   </g>
   <g id="legend_1">
    <g id="line2d_33">
     <path d="M 117.743113 14.4 
L 129.743113 14.4 
L 141.743113 14.4 
" style="fill: none; stroke-dasharray: 8.64,2.16,1.35,2.16; stroke-dashoffset: 0; stroke: #9ca3af; stroke-opacity: 0.72; stroke-width: 1.35"/>
     <g>
      <use xlink:href="#m2fbb2cac42" x="129.743113" y="14.4" style="fill: #9ca3af; fill-opacity: 0.72; stroke: #9ca3af; stroke-opacity: 0.72"/>
     </g>
    </g>
    <g id="text_17">
     <!-- Raw MC -->
     <g transform="translate(149.423113 17.76) scale(0.096 -0.096)">
      <defs>
       <path id="TimesNewRomanPSMT-77" d="M 41 2863 
L 1241 2863 
L 1241 2747 
Q 1075 2734 1023 2687 
Q 972 2641 972 2553 
Q 972 2456 1025 2319 
L 1638 672 
L 2253 2013 
L 2091 2434 
Q 2016 2622 1894 2694 
Q 1825 2738 1638 2747 
L 1638 2863 
L 3000 2863 
L 3000 2747 
Q 2775 2738 2681 2666 
Q 2619 2616 2619 2506 
Q 2619 2444 2644 2378 
L 3294 734 
L 3897 2319 
Q 3959 2488 3959 2588 
Q 3959 2647 3898 2694 
Q 3838 2741 3659 2747 
L 3659 2863 
L 4563 2863 
L 4563 2747 
Q 4291 2706 4163 2378 
L 3206 -88 
L 3078 -88 
L 2363 1741 
L 1528 -88 
L 1413 -88 
L 494 2319 
Q 403 2547 315 2626 
Q 228 2706 41 2747 
L 41 2863 
z
" transform="scale(0.015625)"/>
       <path id="TimesNewRomanPSMT-43" d="M 3853 4334 
L 3950 2894 
L 3853 2894 
Q 3659 3541 3300 3825 
Q 2941 4109 2438 4109 
Q 2016 4109 1675 3895 
Q 1334 3681 1139 3212 
Q 944 2744 944 2047 
Q 944 1472 1128 1050 
Q 1313 628 1683 403 
Q 2053 178 2528 178 
Q 2941 178 3256 354 
Q 3572 531 3950 1056 
L 4047 994 
Q 3728 428 3303 165 
Q 2878 -97 2294 -97 
Q 1241 -97 663 684 
Q 231 1266 231 2053 
Q 231 2688 515 3219 
Q 800 3750 1298 4042 
Q 1797 4334 2388 4334 
Q 2847 4334 3294 4109 
Q 3425 4041 3481 4041 
Q 3566 4041 3628 4100 
Q 3709 4184 3744 4334 
L 3853 4334 
z
" transform="scale(0.015625)"/>
      </defs>
      <use xlink:href="#TimesNewRomanPSMT-52"/>
      <use xlink:href="#TimesNewRomanPSMT-61" transform="translate(66.699219 0)"/>
      <use xlink:href="#TimesNewRomanPSMT-77" transform="translate(111.083984 0)"/>
      <use xlink:href="#TimesNewRomanPSMT-20" transform="translate(183.300781 0)"/>
      <use xlink:href="#TimesNewRomanPSMT-4d" transform="translate(208.300781 0)"/>
      <use xlink:href="#TimesNewRomanPSMT-43" transform="translate(297.216797 0)"/>
     </g>
    </g>
    <g id="line2d_34">
     <path d="M 117.743113 27.9735 
L 129.743113 27.9735 
L 141.743113 27.9735 
" style="fill: none; stroke: #4c78a8; stroke-opacity: 0.72; stroke-width: 1.35; stroke-linecap: square"/>
     <g>
      <use xlink:href="#m49ccab3e5f" x="129.743113" y="27.9735" style="fill: #4c78a8; fill-opacity: 0.72; stroke: #4c78a8; stroke-opacity: 0.72"/>
     </g>
    </g>
    <g id="text_18">
     <!-- Split CP -->
     <g transform="translate(149.423113 31.3335) scale(0.096 -0.096)">
      <defs>
       <path id="TimesNewRomanPSMT-53" d="M 2934 4334 
L 2934 2869 
L 2819 2869 
Q 2763 3291 2617 3541 
Q 2472 3791 2203 3937 
Q 1934 4084 1647 4084 
Q 1322 4084 1109 3886 
Q 897 3688 897 3434 
Q 897 3241 1031 3081 
Q 1225 2847 1953 2456 
Q 2547 2138 2764 1967 
Q 2981 1797 3098 1565 
Q 3216 1334 3216 1081 
Q 3216 600 2842 251 
Q 2469 -97 1881 -97 
Q 1697 -97 1534 -69 
Q 1438 -53 1133 45 
Q 828 144 747 144 
Q 669 144 623 97 
Q 578 50 556 -97 
L 441 -97 
L 441 1356 
L 556 1356 
Q 638 900 775 673 
Q 913 447 1195 297 
Q 1478 147 1816 147 
Q 2206 147 2432 353 
Q 2659 559 2659 841 
Q 2659 997 2573 1156 
Q 2488 1316 2306 1453 
Q 2184 1547 1640 1851 
Q 1097 2156 867 2337 
Q 638 2519 519 2737 
Q 400 2956 400 3219 
Q 400 3675 750 4004 
Q 1100 4334 1641 4334 
Q 1978 4334 2356 4169 
Q 2531 4091 2603 4091 
Q 2684 4091 2736 4139 
Q 2788 4188 2819 4334 
L 2934 4334 
z
" transform="scale(0.015625)"/>
       <path id="TimesNewRomanPSMT-70" d="M -6 2578 
L 875 2934 
L 994 2934 
L 994 2266 
Q 1216 2644 1439 2795 
Q 1663 2947 1909 2947 
Q 2341 2947 2628 2609 
Q 2981 2197 2981 1534 
Q 2981 794 2556 309 
Q 2206 -88 1675 -88 
Q 1444 -88 1275 -22 
Q 1150 25 994 166 
L 994 -706 
Q 994 -1000 1030 -1079 
Q 1066 -1159 1155 -1206 
Q 1244 -1253 1478 -1253 
L 1478 -1369 
L -22 -1369 
L -22 -1253 
L 56 -1253 
Q 228 -1256 350 -1188 
Q 409 -1153 442 -1076 
Q 475 -1000 475 -688 
L 475 2019 
Q 475 2297 450 2372 
Q 425 2447 370 2484 
Q 316 2522 222 2522 
Q 147 2522 31 2478 
L -6 2578 
z
M 994 2081 
L 994 1013 
Q 994 666 1022 556 
Q 1066 375 1236 237 
Q 1406 100 1666 100 
Q 1978 100 2172 344 
Q 2425 663 2425 1241 
Q 2425 1897 2138 2250 
Q 1938 2494 1663 2494 
Q 1513 2494 1366 2419 
Q 1253 2363 994 2081 
z
" transform="scale(0.015625)"/>
       <path id="TimesNewRomanPSMT-6c" d="M 1184 4444 
L 1184 647 
Q 1184 378 1223 290 
Q 1263 203 1344 158 
Q 1425 113 1647 113 
L 1647 0 
L 244 0 
L 244 113 
Q 441 113 512 153 
Q 584 194 625 287 
Q 666 381 666 647 
L 666 3247 
Q 666 3731 644 3842 
Q 622 3953 573 3993 
Q 525 4034 450 4034 
Q 369 4034 244 3984 
L 191 4094 
L 1044 4444 
L 1184 4444 
z
" transform="scale(0.015625)"/>
       <path id="TimesNewRomanPSMT-50" d="M 1313 1984 
L 1313 750 
Q 1313 350 1400 253 
Q 1519 116 1759 116 
L 1922 116 
L 1922 0 
L 106 0 
L 106 116 
L 266 116 
Q 534 116 650 291 
Q 713 388 713 750 
L 713 3488 
Q 713 3888 628 3984 
Q 506 4122 266 4122 
L 106 4122 
L 106 4238 
L 1659 4238 
Q 2228 4238 2556 4120 
Q 2884 4003 3109 3725 
Q 3334 3447 3334 3066 
Q 3334 2547 2992 2222 
Q 2650 1897 2025 1897 
Q 1872 1897 1694 1919 
Q 1516 1941 1313 1984 
z
M 1313 2163 
Q 1478 2131 1606 2115 
Q 1734 2100 1825 2100 
Q 2150 2100 2386 2351 
Q 2622 2603 2622 3003 
Q 2622 3278 2509 3514 
Q 2397 3750 2190 3867 
Q 1984 3984 1722 3984 
Q 1563 3984 1313 3925 
L 1313 2163 
z
" transform="scale(0.015625)"/>
      </defs>
      <use xlink:href="#TimesNewRomanPSMT-53"/>
      <use xlink:href="#TimesNewRomanPSMT-70" transform="translate(55.615234 0)"/>
      <use xlink:href="#TimesNewRomanPSMT-6c" transform="translate(105.615234 0)"/>
      <use xlink:href="#TimesNewRomanPSMT-69" transform="translate(133.398438 0)"/>
      <use xlink:href="#TimesNewRomanPSMT-74" transform="translate(161.181641 0)"/>
      <use xlink:href="#TimesNewRomanPSMT-20" transform="translate(188.964844 0)"/>
      <use xlink:href="#TimesNewRomanPSMT-43" transform="translate(213.964844 0)"/>
      <use xlink:href="#TimesNewRomanPSMT-50" transform="translate(280.664062 0)"/>
     </g>
    </g>
    <g id="line2d_35">
     <path d="M 194.921113 14.4 
L 206.921113 14.4 
L 218.921113 14.4 
" style="fill: none; stroke: #72b7b2; stroke-opacity: 0.72; stroke-width: 1.35; stroke-linecap: square"/>
     <g>
      <use xlink:href="#m1a6b746573" x="206.921113" y="14.4" style="fill: #72b7b2; fill-opacity: 0.72; stroke: #72b7b2; stroke-opacity: 0.72"/>
     </g>
    </g>
    <g id="text_19">
     <!-- P-M CP -->
     <g transform="translate(226.601113 17.76) scale(0.096 -0.096)">
      <defs>
       <path id="TimesNewRomanPSMT-2d" d="M 259 1672 
L 1875 1672 
L 1875 1200 
L 259 1200 
L 259 1672 
z
" transform="scale(0.015625)"/>
      </defs>
      <use xlink:href="#TimesNewRomanPSMT-50"/>
      <use xlink:href="#TimesNewRomanPSMT-2d" transform="translate(55.615234 0)"/>
      <use xlink:href="#TimesNewRomanPSMT-4d" transform="translate(88.916016 0)"/>
      <use xlink:href="#TimesNewRomanPSMT-20" transform="translate(177.832031 0)"/>
      <use xlink:href="#TimesNewRomanPSMT-43" transform="translate(202.832031 0)"/>
      <use xlink:href="#TimesNewRomanPSMT-50" transform="translate(269.53125 0)"/>
     </g>
    </g>
    <g id="line2d_36">
     <path d="M 194.921113 27.9735 
L 206.921113 27.9735 
L 218.921113 27.9735 
" style="fill: none; stroke: #3a9d9a; stroke-opacity: 0.72; stroke-width: 1.35; stroke-linecap: square"/>
     <g>
      <use xlink:href="#md71de4e284" x="206.921113" y="27.9735" style="fill: #3a9d9a; fill-opacity: 0.72; stroke: #3a9d9a; stroke-opacity: 0.72"/>
     </g>
    </g>
    <g id="text_20">
     <!-- P-MCInt CP -->
     <g transform="translate(226.601113 31.3335) scale(0.096 -0.096)">
      <defs>
       <path id="TimesNewRomanPSMT-49" d="M 1975 116 
L 1975 0 
L 159 0 
L 159 116 
L 309 116 
Q 572 116 691 269 
Q 766 369 766 750 
L 766 3488 
Q 766 3809 725 3913 
Q 694 3991 597 4047 
Q 459 4122 309 4122 
L 159 4122 
L 159 4238 
L 1975 4238 
L 1975 4122 
L 1822 4122 
Q 1563 4122 1444 3969 
Q 1366 3869 1366 3488 
L 1366 750 
Q 1366 428 1406 325 
Q 1438 247 1538 191 
Q 1672 116 1822 116 
L 1975 116 
z
" transform="scale(0.015625)"/>
      </defs>
      <use xlink:href="#TimesNewRomanPSMT-50"/>
      <use xlink:href="#TimesNewRomanPSMT-2d" transform="translate(55.615234 0)"/>
      <use xlink:href="#TimesNewRomanPSMT-4d" transform="translate(88.916016 0)"/>
      <use xlink:href="#TimesNewRomanPSMT-43" transform="translate(177.832031 0)"/>
      <use xlink:href="#TimesNewRomanPSMT-49" transform="translate(244.53125 0)"/>
      <use xlink:href="#TimesNewRomanPSMT-6e" transform="translate(277.832031 0)"/>
      <use xlink:href="#TimesNewRomanPSMT-74" transform="translate(327.832031 0)"/>
      <use xlink:href="#TimesNewRomanPSMT-20" transform="translate(355.615234 0)"/>
      <use xlink:href="#TimesNewRomanPSMT-43" transform="translate(380.615234 0)"/>
      <use xlink:href="#TimesNewRomanPSMT-50" transform="translate(447.314453 0)"/>
     </g>
    </g>
    <g id="line2d_37">
     <path d="M 285.441613 14.4 
L 297.441613 14.4 
L 309.441613 14.4 
" style="fill: none; stroke: #e45756; stroke-opacity: 0.98; stroke-width: 2.25; stroke-linecap: square"/>
     <g>
      <use xlink:href="#m0cabc45928" x="297.441613" y="14.4" style="fill: #e45756; fill-opacity: 0.98; stroke: #e45756; stroke-opacity: 0.98"/>
     </g>
    </g>
    <g id="text_21">
     <!-- P-StdMC CP -->
     <g transform="translate(317.121613 17.76) scale(0.096 -0.096)">
      <use xlink:href="#TimesNewRomanPSMT-50"/>
      <use xlink:href="#TimesNewRomanPSMT-2d" transform="translate(55.615234 0)"/>
      <use xlink:href="#TimesNewRomanPSMT-53" transform="translate(88.916016 0)"/>
      <use xlink:href="#TimesNewRomanPSMT-74" transform="translate(144.53125 0)"/>
      <use xlink:href="#TimesNewRomanPSMT-64" transform="translate(172.314453 0)"/>
      <use xlink:href="#TimesNewRomanPSMT-4d" transform="translate(222.314453 0)"/>
      <use xlink:href="#TimesNewRomanPSMT-43" transform="translate(311.230469 0)"/>
      <use xlink:href="#TimesNewRomanPSMT-20" transform="translate(377.929688 0)"/>
      <use xlink:href="#TimesNewRomanPSMT-43" transform="translate(402.929688 0)"/>
      <use xlink:href="#TimesNewRomanPSMT-50" transform="translate(469.628906 0)"/>
     </g>
    </g>
    <g id="line2d_38">
     <path d="M 285.441613 27.9735 
L 297.441613 27.9735 
L 309.441613 27.9735 
" style="fill: none; stroke-dasharray: 6.29,2.72; stroke-dashoffset: 0; stroke: #111111; stroke-width: 1.7"/>
    </g>
    <g id="text_22">
     <!-- Oracle -->
     <g transform="translate(317.121613 31.3335) scale(0.096 -0.096)">
      <defs>
       <path id="TimesNewRomanPSMT-4f" d="M 2341 4334 
Q 3166 4334 3770 3707 
Q 4375 3081 4375 2144 
Q 4375 1178 3765 540 
Q 3156 -97 2291 -97 
Q 1416 -97 820 525 
Q 225 1147 225 2134 
Q 225 3144 913 3781 
Q 1509 4334 2341 4334 
z
M 2281 4106 
Q 1713 4106 1369 3684 
Q 941 3159 941 2147 
Q 941 1109 1384 550 
Q 1725 125 2284 125 
Q 2881 125 3270 590 
Q 3659 1056 3659 2059 
Q 3659 3147 3231 3681 
Q 2888 4106 2281 4106 
z
" transform="scale(0.015625)"/>
      </defs>
      <use xlink:href="#TimesNewRomanPSMT-4f"/>
      <use xlink:href="#TimesNewRomanPSMT-72" transform="translate(72.216797 0)"/>
      <use xlink:href="#TimesNewRomanPSMT-61" transform="translate(105.517578 0)"/>
      <use xlink:href="#TimesNewRomanPSMT-63" transform="translate(149.902344 0)"/>
      <use xlink:href="#TimesNewRomanPSMT-6c" transform="translate(194.287109 0)"/>
      <use xlink:href="#TimesNewRomanPSMT-65" transform="translate(222.070312 0)"/>
     </g>
    </g>
   </g>
  </g>
  <g id="axes_2">
   <g id="patch_7">
    <path d="M 517.24779 252.57984 
L 888.334516 252.57984 
L 888.334516 55.58784 
L 517.24779 55.58784 
z
" style="fill: #ffffff"/>
   </g>
   <g id="matplotlib.axis_3">
    <g id="xtick_6">
     <g id="line2d_39">
      <path d="M 559.845573 252.57984 
L 559.845573 55.58784 
" clip-path="url(#pc0b8feda37)" style="fill: none; stroke: #b0b0b0; stroke-opacity: 0.25; stroke-width: 0.45; stroke-linecap: square"/>
     </g>
     <g id="line2d_40">
      <g>
       <use xlink:href="#m2e13ddfe93" x="559.845573" y="252.57984" style="stroke: #000000"/>
      </g>
     </g>
     <g id="text_23">
      <!-- Raw -->
      <g transform="translate(550.221667 263.370777) scale(0.105 -0.105)">
       <use xlink:href="#TimesNewRomanPSMT-52"/>
       <use xlink:href="#TimesNewRomanPSMT-61" transform="translate(66.699219 0)"/>
       <use xlink:href="#TimesNewRomanPSMT-77" transform="translate(111.083984 0)"/>
      </g>
      <!-- MC -->
      <g transform="translate(551.67526 274.365918) scale(0.105 -0.105)">
       <use xlink:href="#TimesNewRomanPSMT-4d"/>
       <use xlink:href="#TimesNewRomanPSMT-43" transform="translate(88.916016 0)"/>
      </g>
     </g>
    </g>
    <g id="xtick_7">
     <g id="line2d_41">
      <path d="M 631.318363 252.57984 
L 631.318363 55.58784 
" clip-path="url(#pc0b8feda37)" style="fill: none; stroke: #b0b0b0; stroke-opacity: 0.25; stroke-width: 0.45; stroke-linecap: square"/>
     </g>
     <g id="line2d_42">
      <g>
       <use xlink:href="#m2e13ddfe93" x="631.318363" y="252.57984" style="stroke: #000000"/>
      </g>
     </g>
     <g id="text_24">
      <!-- Split -->
      <g transform="translate(621.398324 263.370777) scale(0.105 -0.105)">
       <use xlink:href="#TimesNewRomanPSMT-53"/>
       <use xlink:href="#TimesNewRomanPSMT-70" transform="translate(55.615234 0)"/>
       <use xlink:href="#TimesNewRomanPSMT-6c" transform="translate(105.615234 0)"/>
       <use xlink:href="#TimesNewRomanPSMT-69" transform="translate(133.398438 0)"/>
       <use xlink:href="#TimesNewRomanPSMT-74" transform="translate(161.181641 0)"/>
      </g>
      <!-- CP -->
      <g transform="translate(624.896957 274.365918) scale(0.105 -0.105)">
       <use xlink:href="#TimesNewRomanPSMT-43"/>
       <use xlink:href="#TimesNewRomanPSMT-50" transform="translate(66.699219 0)"/>
      </g>
     </g>
    </g>
    <g id="xtick_8">
     <g id="line2d_43">
      <path d="M 702.791153 252.57984 
L 702.791153 55.58784 
" clip-path="url(#pc0b8feda37)" style="fill: none; stroke: #b0b0b0; stroke-opacity: 0.25; stroke-width: 0.45; stroke-linecap: square"/>
     </g>
     <g id="line2d_44">
      <g>
       <use xlink:href="#m2e13ddfe93" x="702.791153" y="252.57984" style="stroke: #000000"/>
      </g>
     </g>
     <g id="text_25">
      <!-- P-M -->
      <g transform="translate(693.455176 263.370777) scale(0.105 -0.105)">
       <use xlink:href="#TimesNewRomanPSMT-50"/>
       <use xlink:href="#TimesNewRomanPSMT-2d" transform="translate(55.615234 0)"/>
       <use xlink:href="#TimesNewRomanPSMT-4d" transform="translate(88.916016 0)"/>
      </g>
      <!-- CP -->
      <g transform="translate(696.369747 274.365918) scale(0.105 -0.105)">
       <use xlink:href="#TimesNewRomanPSMT-43"/>
       <use xlink:href="#TimesNewRomanPSMT-50" transform="translate(66.699219 0)"/>
      </g>
     </g>
    </g>
    <g id="xtick_9">
     <g id="line2d_45">
      <path d="M 774.263943 252.57984 
L 774.263943 55.58784 
" clip-path="url(#pc0b8feda37)" style="fill: none; stroke: #b0b0b0; stroke-opacity: 0.25; stroke-width: 0.45; stroke-linecap: square"/>
     </g>
     <g id="line2d_46">
      <g>
       <use xlink:href="#m2e13ddfe93" x="774.263943" y="252.57984" style="stroke: #000000"/>
      </g>
     </g>
     <g id="text_26">
      <!-- P-MCInt -->
      <g transform="translate(755.594451 263.370777) scale(0.105 -0.105)">
       <use xlink:href="#TimesNewRomanPSMT-50"/>
       <use xlink:href="#TimesNewRomanPSMT-2d" transform="translate(55.615234 0)"/>
       <use xlink:href="#TimesNewRomanPSMT-4d" transform="translate(88.916016 0)"/>
       <use xlink:href="#TimesNewRomanPSMT-43" transform="translate(177.832031 0)"/>
       <use xlink:href="#TimesNewRomanPSMT-49" transform="translate(244.53125 0)"/>
       <use xlink:href="#TimesNewRomanPSMT-6e" transform="translate(277.832031 0)"/>
       <use xlink:href="#TimesNewRomanPSMT-74" transform="translate(327.832031 0)"/>
      </g>
      <!-- CP -->
      <g transform="translate(767.842537 274.365918) scale(0.105 -0.105)">
       <use xlink:href="#TimesNewRomanPSMT-43"/>
       <use xlink:href="#TimesNewRomanPSMT-50" transform="translate(66.699219 0)"/>
      </g>
     </g>
    </g>
    <g id="xtick_10">
     <g id="line2d_47">
      <path d="M 845.736733 252.57984 
L 845.736733 55.58784 
" clip-path="url(#pc0b8feda37)" style="fill: none; stroke: #b0b0b0; stroke-opacity: 0.25; stroke-width: 0.45; stroke-linecap: square"/>
     </g>
     <g id="line2d_48">
      <g>
       <use xlink:href="#m2e13ddfe93" x="845.736733" y="252.57984" style="stroke: #000000"/>
      </g>
     </g>
     <g id="text_27">
      <!-- P-StdMC -->
      <g transform="translate(825.895834 263.370777) scale(0.105 -0.105)">
       <use xlink:href="#TimesNewRomanPSMT-50"/>
       <use xlink:href="#TimesNewRomanPSMT-2d" transform="translate(55.615234 0)"/>
       <use xlink:href="#TimesNewRomanPSMT-53" transform="translate(88.916016 0)"/>
       <use xlink:href="#TimesNewRomanPSMT-74" transform="translate(144.53125 0)"/>
       <use xlink:href="#TimesNewRomanPSMT-64" transform="translate(172.314453 0)"/>
       <use xlink:href="#TimesNewRomanPSMT-4d" transform="translate(222.314453 0)"/>
       <use xlink:href="#TimesNewRomanPSMT-43" transform="translate(311.230469 0)"/>
      </g>
      <!-- CP -->
      <g transform="translate(839.315327 274.365918) scale(0.105 -0.105)">
       <use xlink:href="#TimesNewRomanPSMT-43"/>
       <use xlink:href="#TimesNewRomanPSMT-50" transform="translate(66.699219 0)"/>
      </g>
     </g>
    </g>
   </g>
   <g id="matplotlib.axis_4">
    <g id="ytick_9">
     <g id="line2d_49">
      <path d="M 517.24779 252.57984 
L 888.334516 252.57984 
" clip-path="url(#pc0b8feda37)" style="fill: none; stroke: #b0b0b0; stroke-opacity: 0.25; stroke-width: 0.45; stroke-linecap: square"/>
     </g>
     <g id="line2d_50">
      <g>
       <use xlink:href="#meb2ce07407" x="517.24779" y="252.57984" style="stroke: #000000"/>
      </g>
     </g>
     <g id="text_28">
      <!-- 0.00 -->
      <g transform="translate(495.37279 256.225309) scale(0.105 -0.105)">
       <use xlink:href="#TimesNewRomanPSMT-30"/>
       <use xlink:href="#TimesNewRomanPSMT-2e" transform="translate(50 0)"/>
       <use xlink:href="#TimesNewRomanPSMT-30" transform="translate(75 0)"/>
       <use xlink:href="#TimesNewRomanPSMT-30" transform="translate(125 0)"/>
      </g>
     </g>
    </g>
    <g id="ytick_10">
     <g id="line2d_51">
      <path d="M 517.24779 224.438126 
L 888.334516 224.438126 
" clip-path="url(#pc0b8feda37)" style="fill: none; stroke: #b0b0b0; stroke-opacity: 0.25; stroke-width: 0.45; stroke-linecap: square"/>
     </g>
     <g id="line2d_52">
      <g>
       <use xlink:href="#meb2ce07407" x="517.24779" y="224.438126" style="stroke: #000000"/>
      </g>
     </g>
     <g id="text_29">
      <!-- 0.01 -->
      <g transform="translate(495.37279 228.083594) scale(0.105 -0.105)">
       <use xlink:href="#TimesNewRomanPSMT-30"/>
       <use xlink:href="#TimesNewRomanPSMT-2e" transform="translate(50 0)"/>
       <use xlink:href="#TimesNewRomanPSMT-30" transform="translate(75 0)"/>
       <use xlink:href="#TimesNewRomanPSMT-31" transform="translate(125 0)"/>
      </g>
     </g>
    </g>
    <g id="ytick_11">
     <g id="line2d_53">
      <path d="M 517.24779 196.296411 
L 888.334516 196.296411 
" clip-path="url(#pc0b8feda37)" style="fill: none; stroke: #b0b0b0; stroke-opacity: 0.25; stroke-width: 0.45; stroke-linecap: square"/>
     </g>
     <g id="line2d_54">
      <g>
       <use xlink:href="#meb2ce07407" x="517.24779" y="196.296411" style="stroke: #000000"/>
      </g>
     </g>
     <g id="text_30">
      <!-- 0.02 -->
      <g transform="translate(495.37279 199.94188) scale(0.105 -0.105)">
       <use xlink:href="#TimesNewRomanPSMT-30"/>
       <use xlink:href="#TimesNewRomanPSMT-2e" transform="translate(50 0)"/>
       <use xlink:href="#TimesNewRomanPSMT-30" transform="translate(75 0)"/>
       <use xlink:href="#TimesNewRomanPSMT-32" transform="translate(125 0)"/>
      </g>
     </g>
    </g>
    <g id="ytick_12">
     <g id="line2d_55">
      <path d="M 517.24779 168.154697 
L 888.334516 168.154697 
" clip-path="url(#pc0b8feda37)" style="fill: none; stroke: #b0b0b0; stroke-opacity: 0.25; stroke-width: 0.45; stroke-linecap: square"/>
     </g>
     <g id="line2d_56">
      <g>
       <use xlink:href="#meb2ce07407" x="517.24779" y="168.154697" style="stroke: #000000"/>
      </g>
     </g>
     <g id="text_31">
      <!-- 0.03 -->
      <g transform="translate(495.37279 171.800166) scale(0.105 -0.105)">
       <use xlink:href="#TimesNewRomanPSMT-30"/>
       <use xlink:href="#TimesNewRomanPSMT-2e" transform="translate(50 0)"/>
       <use xlink:href="#TimesNewRomanPSMT-30" transform="translate(75 0)"/>
       <use xlink:href="#TimesNewRomanPSMT-33" transform="translate(125 0)"/>
      </g>
     </g>
    </g>
    <g id="ytick_13">
     <g id="line2d_57">
      <path d="M 517.24779 140.012983 
L 888.334516 140.012983 
" clip-path="url(#pc0b8feda37)" style="fill: none; stroke: #b0b0b0; stroke-opacity: 0.25; stroke-width: 0.45; stroke-linecap: square"/>
     </g>
     <g id="line2d_58">
      <g>
       <use xlink:href="#meb2ce07407" x="517.24779" y="140.012983" style="stroke: #000000"/>
      </g>
     </g>
     <g id="text_32">
      <!-- 0.04 -->
      <g transform="translate(495.37279 143.658452) scale(0.105 -0.105)">
       <use xlink:href="#TimesNewRomanPSMT-30"/>
       <use xlink:href="#TimesNewRomanPSMT-2e" transform="translate(50 0)"/>
       <use xlink:href="#TimesNewRomanPSMT-30" transform="translate(75 0)"/>
       <use xlink:href="#TimesNewRomanPSMT-34" transform="translate(125 0)"/>
      </g>
     </g>
    </g>
    <g id="ytick_14">
     <g id="line2d_59">
      <path d="M 517.24779 111.871269 
L 888.334516 111.871269 
" clip-path="url(#pc0b8feda37)" style="fill: none; stroke: #b0b0b0; stroke-opacity: 0.25; stroke-width: 0.45; stroke-linecap: square"/>
     </g>
     <g id="line2d_60">
      <g>
       <use xlink:href="#meb2ce07407" x="517.24779" y="111.871269" style="stroke: #000000"/>
      </g>
     </g>
     <g id="text_33">
      <!-- 0.05 -->
      <g transform="translate(495.37279 115.516737) scale(0.105 -0.105)">
       <use xlink:href="#TimesNewRomanPSMT-30"/>
       <use xlink:href="#TimesNewRomanPSMT-2e" transform="translate(50 0)"/>
       <use xlink:href="#TimesNewRomanPSMT-30" transform="translate(75 0)"/>
       <use xlink:href="#TimesNewRomanPSMT-35" transform="translate(125 0)"/>
      </g>
     </g>
    </g>
    <g id="ytick_15">
     <g id="line2d_61">
      <path d="M 517.24779 83.729554 
L 888.334516 83.729554 
" clip-path="url(#pc0b8feda37)" style="fill: none; stroke: #b0b0b0; stroke-opacity: 0.25; stroke-width: 0.45; stroke-linecap: square"/>
     </g>
     <g id="line2d_62">
      <g>
       <use xlink:href="#meb2ce07407" x="517.24779" y="83.729554" style="stroke: #000000"/>
      </g>
     </g>
     <g id="text_34">
      <!-- 0.06 -->
      <g transform="translate(495.37279 87.375023) scale(0.105 -0.105)">
       <use xlink:href="#TimesNewRomanPSMT-30"/>
       <use xlink:href="#TimesNewRomanPSMT-2e" transform="translate(50 0)"/>
       <use xlink:href="#TimesNewRomanPSMT-30" transform="translate(75 0)"/>
       <use xlink:href="#TimesNewRomanPSMT-36" transform="translate(125 0)"/>
      </g>
     </g>
    </g>
    <g id="ytick_16">
     <g id="line2d_63">
      <path d="M 517.24779 55.58784 
L 888.334516 55.58784 
" clip-path="url(#pc0b8feda37)" style="fill: none; stroke: #b0b0b0; stroke-opacity: 0.25; stroke-width: 0.45; stroke-linecap: square"/>
     </g>
     <g id="line2d_64">
      <g>
       <use xlink:href="#meb2ce07407" x="517.24779" y="55.58784" style="stroke: #000000"/>
      </g>
     </g>
     <g id="text_35">
      <!-- 0.07 -->
      <g transform="translate(495.37279 59.233309) scale(0.105 -0.105)">
       <defs>
        <path id="TimesNewRomanPSMT-37" d="M 644 4238 
L 2916 4238 
L 2916 4119 
L 1503 -88 
L 1153 -88 
L 2419 3728 
L 1253 3728 
Q 900 3728 750 3644 
Q 488 3500 328 3200 
L 238 3234 
L 644 4238 
z
" transform="scale(0.015625)"/>
       </defs>
       <use xlink:href="#TimesNewRomanPSMT-30"/>
       <use xlink:href="#TimesNewRomanPSMT-2e" transform="translate(50 0)"/>
       <use xlink:href="#TimesNewRomanPSMT-30" transform="translate(75 0)"/>
       <use xlink:href="#TimesNewRomanPSMT-37" transform="translate(125 0)"/>
      </g>
     </g>
    </g>
    <g id="text_36">
     <!-- MAE -->
     <g transform="translate(488.698962 167.972512) rotate(-90) scale(0.125 -0.125)">
      <use xlink:href="#TimesNewRomanPSMT-4d"/>
      <use xlink:href="#TimesNewRomanPSMT-41" transform="translate(88.916016 0)"/>
      <use xlink:href="#TimesNewRomanPSMT-45" transform="translate(161.132812 0)"/>
     </g>
    </g>
   </g>
   <g id="patch_8">
    <path d="M 534.115368 252.57984 
L 559.845573 252.57984 
L 559.845573 174.386136 
L 534.115368 174.386136 
z
" clip-path="url(#pc0b8feda37)" style="fill: #a9cbe8; opacity: 0.95; stroke: #000000; stroke-width: 0.75; stroke-linejoin: miter"/>
   </g>
   <g id="patch_9">
    <path d="M 605.588158 252.57984 
L 631.318363 252.57984 
L 631.318363 157.277756 
L 605.588158 157.277756 
z
" clip-path="url(#pc0b8feda37)" style="fill: #a9cbe8; opacity: 0.95; stroke: #000000; stroke-width: 0.75; stroke-linejoin: miter"/>
   </g>
   <g id="patch_10">
    <path d="M 677.060948 252.57984 
L 702.791153 252.57984 
L 702.791153 165.136567 
L 677.060948 165.136567 
z
" clip-path="url(#pc0b8feda37)" style="fill: #a9cbe8; opacity: 0.95; stroke: #000000; stroke-width: 0.75; stroke-linejoin: miter"/>
   </g>
   <g id="patch_11">
    <path d="M 748.533738 252.57984 
L 774.263943 252.57984 
L 774.263943 170.363902 
L 748.533738 170.363902 
z
" clip-path="url(#pc0b8feda37)" style="fill: #a9cbe8; opacity: 0.95; stroke: #000000; stroke-width: 0.75; stroke-linejoin: miter"/>
   </g>
   <g id="patch_12">
    <path d="M 820.006528 252.57984 
L 845.736733 252.57984 
L 845.736733 172.2246 
L 820.006528 172.2246 
z
" clip-path="url(#pc0b8feda37)" style="fill: #a9cbe8; opacity: 0.95; stroke: #000000; stroke-width: 0.75; stroke-linejoin: miter"/>
   </g>
   <g id="patch_13">
    <path d="M 559.845573 252.57984 
L 585.575777 252.57984 
L 585.575777 87.485711 
L 559.845573 87.485711 
z
" clip-path="url(#pc0b8feda37)" style="fill: #f28e2b; opacity: 0.95; stroke: #000000; stroke-width: 0.75; stroke-linejoin: miter"/>
   </g>
   <g id="patch_14">
    <path d="M 631.318363 252.57984 
L 657.048567 252.57984 
L 657.048567 155.969109 
L 631.318363 155.969109 
z
" clip-path="url(#pc0b8feda37)" style="fill: #f28e2b; opacity: 0.95; stroke: #000000; stroke-width: 0.75; stroke-linejoin: miter"/>
   </g>
   <g id="patch_15">
    <path d="M 702.791153 252.57984 
L 728.521357 252.57984 
L 728.521357 124.510953 
L 702.791153 124.510953 
z
" clip-path="url(#pc0b8feda37)" style="fill: #f28e2b; opacity: 0.95; stroke: #000000; stroke-width: 0.75; stroke-linejoin: miter"/>
   </g>
   <g id="patch_16">
    <path d="M 774.263943 252.57984 
L 799.994147 252.57984 
L 799.994147 103.586373 
L 774.263943 103.586373 
z
" clip-path="url(#pc0b8feda37)" style="fill: #f28e2b; opacity: 0.95; stroke: #000000; stroke-width: 0.75; stroke-linejoin: miter"/>
   </g>
   <g id="patch_17">
    <path d="M 845.736733 252.57984 
L 871.466937 252.57984 
L 871.466937 96.138155 
L 845.736733 96.138155 
z
" clip-path="url(#pc0b8feda37)" style="fill: #f28e2b; opacity: 0.95; stroke: #000000; stroke-width: 0.75; stroke-linejoin: miter"/>
   </g>
   <g id="patch_18">
    <path d="M 517.24779 252.57984 
L 517.24779 55.58784 
" style="fill: none; stroke: #000000; stroke-width: 1.15; stroke-linejoin: miter; stroke-linecap: square"/>
   </g>
   <g id="patch_19">
    <path d="M 888.334516 252.57984 
L 888.334516 55.58784 
" style="fill: none; stroke: #000000; stroke-width: 1.15; stroke-linejoin: miter; stroke-linecap: square"/>
   </g>
   <g id="patch_20">
    <path d="M 517.24779 252.57984 
L 888.334516 252.57984 
" style="fill: none; stroke: #000000; stroke-width: 1.15; stroke-linejoin: miter; stroke-linecap: square"/>
   </g>
   <g id="patch_21">
    <path d="M 517.24779 55.58784 
L 888.334516 55.58784 
" style="fill: none; stroke: #000000; stroke-width: 1.15; stroke-linejoin: miter; stroke-linecap: square"/>
   </g>
   <g id="text_37">
    <!-- 0.028 -->
    <g transform="translate(537.417971 169.190927) scale(0.085 -0.085)">
     <use xlink:href="#TimesNewRomanPSMT-30"/>
     <use xlink:href="#TimesNewRomanPSMT-2e" transform="translate(50 0)"/>
     <use xlink:href="#TimesNewRomanPSMT-30" transform="translate(75 0)"/>
     <use xlink:href="#TimesNewRomanPSMT-32" transform="translate(125 0)"/>
     <use xlink:href="#TimesNewRomanPSMT-38" transform="translate(175 0)"/>
    </g>
   </g>
   <g id="text_38">
    <!-- 0.034 -->
    <g transform="translate(608.890761 152.082547) scale(0.085 -0.085)">
     <use xlink:href="#TimesNewRomanPSMT-30"/>
     <use xlink:href="#TimesNewRomanPSMT-2e" transform="translate(50 0)"/>
     <use xlink:href="#TimesNewRomanPSMT-30" transform="translate(75 0)"/>
     <use xlink:href="#TimesNewRomanPSMT-33" transform="translate(125 0)"/>
     <use xlink:href="#TimesNewRomanPSMT-34" transform="translate(175 0)"/>
    </g>
   </g>
   <g id="text_39">
    <!-- 0.031 -->
    <g transform="translate(680.363551 159.941358) scale(0.085 -0.085)">
     <use xlink:href="#TimesNewRomanPSMT-30"/>
     <use xlink:href="#TimesNewRomanPSMT-2e" transform="translate(50 0)"/>
     <use xlink:href="#TimesNewRomanPSMT-30" transform="translate(75 0)"/>
     <use xlink:href="#TimesNewRomanPSMT-33" transform="translate(125 0)"/>
     <use xlink:href="#TimesNewRomanPSMT-31" transform="translate(175 0)"/>
    </g>
   </g>
   <g id="text_40">
    <!-- 0.029 -->
    <g transform="translate(751.836341 165.168693) scale(0.085 -0.085)">
     <defs>
      <path id="TimesNewRomanPSMT-39" d="M 338 -88 
L 338 28 
Q 744 34 1094 217 
Q 1444 400 1770 856 
Q 2097 1313 2225 1859 
Q 1734 1544 1338 1544 
Q 891 1544 572 1889 
Q 253 2234 253 2806 
Q 253 3363 572 3797 
Q 956 4325 1575 4325 
Q 2097 4325 2469 3894 
Q 2925 3359 2925 2575 
Q 2925 1869 2578 1258 
Q 2231 647 1613 244 
Q 1109 -88 516 -88 
L 338 -88 
z
M 2275 2091 
Q 2331 2497 2331 2741 
Q 2331 3044 2228 3395 
Q 2125 3747 1936 3934 
Q 1747 4122 1506 4122 
Q 1228 4122 1018 3872 
Q 809 3622 809 3128 
Q 809 2469 1088 2097 
Q 1291 1828 1588 1828 
Q 1731 1828 1928 1897 
Q 2125 1966 2275 2091 
z
" transform="scale(0.015625)"/>
     </defs>
     <use xlink:href="#TimesNewRomanPSMT-30"/>
     <use xlink:href="#TimesNewRomanPSMT-2e" transform="translate(50 0)"/>
     <use xlink:href="#TimesNewRomanPSMT-30" transform="translate(75 0)"/>
     <use xlink:href="#TimesNewRomanPSMT-32" transform="translate(125 0)"/>
     <use xlink:href="#TimesNewRomanPSMT-39" transform="translate(175 0)"/>
    </g>
   </g>
   <g id="text_41">
    <!-- 0.029 -->
    <g transform="translate(823.309131 167.029392) scale(0.085 -0.085)">
     <use xlink:href="#TimesNewRomanPSMT-30"/>
     <use xlink:href="#TimesNewRomanPSMT-2e" transform="translate(50 0)"/>
     <use xlink:href="#TimesNewRomanPSMT-30" transform="translate(75 0)"/>
     <use xlink:href="#TimesNewRomanPSMT-32" transform="translate(125 0)"/>
     <use xlink:href="#TimesNewRomanPSMT-39" transform="translate(175 0)"/>
    </g>
   </g>
   <g id="text_42">
    <!-- 0.059 -->
    <g transform="translate(563.148175 82.290502) scale(0.085 -0.085)">
     <use xlink:href="#TimesNewRomanPSMT-30"/>
     <use xlink:href="#TimesNewRomanPSMT-2e" transform="translate(50 0)"/>
     <use xlink:href="#TimesNewRomanPSMT-30" transform="translate(75 0)"/>
     <use xlink:href="#TimesNewRomanPSMT-35" transform="translate(125 0)"/>
     <use xlink:href="#TimesNewRomanPSMT-39" transform="translate(175 0)"/>
    </g>
   </g>
   <g id="text_43">
    <!-- 0.034 -->
    <g transform="translate(634.620965 150.773901) scale(0.085 -0.085)">
     <use xlink:href="#TimesNewRomanPSMT-30"/>
     <use xlink:href="#TimesNewRomanPSMT-2e" transform="translate(50 0)"/>
     <use xlink:href="#TimesNewRomanPSMT-30" transform="translate(75 0)"/>
     <use xlink:href="#TimesNewRomanPSMT-33" transform="translate(125 0)"/>
     <use xlink:href="#TimesNewRomanPSMT-34" transform="translate(175 0)"/>
    </g>
   </g>
   <g id="text_44">
    <!-- 0.046 -->
    <g transform="translate(706.093755 119.315744) scale(0.085 -0.085)">
     <use xlink:href="#TimesNewRomanPSMT-30"/>
     <use xlink:href="#TimesNewRomanPSMT-2e" transform="translate(50 0)"/>
     <use xlink:href="#TimesNewRomanPSMT-30" transform="translate(75 0)"/>
     <use xlink:href="#TimesNewRomanPSMT-34" transform="translate(125 0)"/>
     <use xlink:href="#TimesNewRomanPSMT-36" transform="translate(175 0)"/>
    </g>
   </g>
   <g id="text_45">
    <!-- 0.053 -->
    <g transform="translate(777.566545 98.391164) scale(0.085 -0.085)">
     <use xlink:href="#TimesNewRomanPSMT-30"/>
     <use xlink:href="#TimesNewRomanPSMT-2e" transform="translate(50 0)"/>
     <use xlink:href="#TimesNewRomanPSMT-30" transform="translate(75 0)"/>
     <use xlink:href="#TimesNewRomanPSMT-35" transform="translate(125 0)"/>
     <use xlink:href="#TimesNewRomanPSMT-33" transform="translate(175 0)"/>
    </g>
   </g>
   <g id="text_46">
    <!-- 0.056 -->
    <g transform="translate(849.039335 90.942946) scale(0.085 -0.085)">
     <use xlink:href="#TimesNewRomanPSMT-30"/>
     <use xlink:href="#TimesNewRomanPSMT-2e" transform="translate(50 0)"/>
     <use xlink:href="#TimesNewRomanPSMT-30" transform="translate(75 0)"/>
     <use xlink:href="#TimesNewRomanPSMT-35" transform="translate(125 0)"/>
     <use xlink:href="#TimesNewRomanPSMT-36" transform="translate(175 0)"/>
    </g>
   </g>
   <g id="text_47">
    <!-- 1.95× -->
    <g style="fill: #111111" transform="translate(833.557553 72.785854) scale(0.105 -0.105)">
     <defs>
      <path id="TimesNewRomanPS-BoldMT-31" d="M 2084 4325 
L 2084 859 
Q 2084 469 2118 361 
Q 2153 253 2262 184 
Q 2372 116 2613 116 
L 2709 116 
L 2709 0 
L 478 0 
L 478 116 
L 591 116 
Q 863 116 978 178 
Q 1094 241 1134 350 
Q 1175 459 1175 859 
L 1175 3056 
Q 1175 3350 1147 3423 
Q 1119 3497 1042 3548 
Q 966 3600 866 3600 
Q 706 3600 478 3500 
L 422 3613 
L 1981 4325 
L 2084 4325 
z
" transform="scale(0.015625)"/>
      <path id="TimesNewRomanPS-BoldMT-2e" d="M 800 963 
Q 1019 963 1170 809 
Q 1322 656 1322 441 
Q 1322 225 1169 73 
Q 1016 -78 800 -78 
Q 584 -78 432 73 
Q 281 225 281 441 
Q 281 656 432 809 
Q 584 963 800 963 
z
" transform="scale(0.015625)"/>
      <path id="TimesNewRomanPS-BoldMT-39" d="M 197 -88 
L 197 0 
Q 716 119 1077 350 
Q 1438 581 1648 922 
Q 1859 1263 1944 1706 
Q 1750 1606 1614 1567 
Q 1478 1528 1328 1528 
Q 847 1528 526 1875 
Q 206 2222 206 2825 
Q 206 3244 379 3592 
Q 553 3941 875 4133 
Q 1197 4325 1544 4325 
Q 1916 4325 2247 4112 
Q 2578 3900 2775 3497 
Q 2972 3094 2972 2578 
Q 2972 1909 2651 1296 
Q 2331 684 1697 314 
Q 1063 -56 197 -88 
z
M 1991 1969 
Q 2022 2319 2022 2584 
Q 2022 3153 1891 3644 
Q 1816 3916 1669 4044 
Q 1591 4113 1466 4113 
Q 1309 4113 1222 3978 
Q 1100 3794 1100 3275 
Q 1100 2409 1306 2081 
Q 1441 1869 1669 1869 
Q 1791 1869 1991 1969 
z
" transform="scale(0.015625)"/>
      <path id="TimesNewRomanPS-BoldMT-35" d="M 975 4238 
L 2959 4238 
L 2644 3431 
L 975 3431 
L 816 3009 
Q 1894 2969 2475 2472 
Q 2953 2063 2953 1453 
Q 2953 1063 2731 689 
Q 2509 316 2106 114 
Q 1703 -88 1222 -88 
Q 703 -88 425 106 
Q 231 244 231 419 
Q 231 553 332 656 
Q 434 759 569 759 
Q 691 759 816 709 
Q 941 659 1244 447 
Q 1434 316 1572 266 
Q 1669 228 1791 228 
Q 2047 228 2226 415 
Q 2406 603 2406 866 
Q 2406 1416 1856 1759 
Q 1306 2103 469 2103 
Q 384 2103 216 2100 
L 975 4238 
z
" transform="scale(0.015625)"/>
      <path id="TimesNewRomanPS-BoldMT-d7" d="M 772 3475 
L 1834 2413 
L 2897 3472 
L 3184 3184 
L 2125 2122 
L 3188 1059 
L 2897 769 
L 1834 1831 
L 778 778 
L 491 1066 
L 1544 2119 
L 481 3184 
L 772 3475 
z
" transform="scale(0.015625)"/>
     </defs>
     <use xlink:href="#TimesNewRomanPS-BoldMT-31"/>
     <use xlink:href="#TimesNewRomanPS-BoldMT-2e" transform="translate(50 0)"/>
     <use xlink:href="#TimesNewRomanPS-BoldMT-39" transform="translate(75 0)"/>
     <use xlink:href="#TimesNewRomanPS-BoldMT-35" transform="translate(125 0)"/>
     <use xlink:href="#TimesNewRomanPS-BoldMT-d7" transform="translate(175 0)"/>
    </g>
   </g>
   <g id="text_48">
    <!-- (b) -->
    <g transform="translate(517.24779 43.942419) scale(0.13 -0.13)">
     <defs>
      <path id="TimesNewRomanPS-BoldMT-62" d="M 1347 4238 
L 1347 2628 
Q 1716 3009 2153 3009 
Q 2453 3009 2718 2832 
Q 2984 2656 3134 2331 
Q 3284 2006 3284 1581 
Q 3284 1103 3093 712 
Q 2903 322 2584 117 
Q 2266 -88 1856 -88 
Q 1619 -88 1434 -12 
Q 1250 63 1072 231 
L 588 -84 
L 481 -84 
L 481 3631 
Q 481 3884 459 3944 
Q 428 4031 361 4073 
Q 294 4116 134 4122 
L 134 4238 
L 1347 4238 
z
M 1347 2350 
L 1347 1050 
Q 1347 653 1366 544 
Q 1397 359 1515 245 
Q 1634 131 1819 131 
Q 1978 131 2092 222 
Q 2206 313 2282 581 
Q 2359 850 2359 1550 
Q 2359 2222 2191 2472 
Q 2069 2653 1863 2653 
Q 1594 2653 1347 2350 
z
" transform="scale(0.015625)"/>
     </defs>
     <use xlink:href="#TimesNewRomanPS-BoldMT-28"/>
     <use xlink:href="#TimesNewRomanPS-BoldMT-62" transform="translate(33.300781 0)"/>
     <use xlink:href="#TimesNewRomanPS-BoldMT-29" transform="translate(88.916016 0)"/>
    </g>
   </g>
   <g id="legend_2">
    <g id="patch_22">
     <path d="M 617.159903 31.54944 
L 634.439903 31.54944 
L 634.439903 24.82944 
L 617.159903 24.82944 
z
" style="fill: #a9cbe8; opacity: 0.95; stroke: #000000; stroke-width: 0.75; stroke-linejoin: miter"/>
    </g>
    <g id="text_49">
     <!-- Accepted 80% -->
     <g transform="translate(642.119903 31.54944) scale(0.096 -0.096)">
      <defs>
       <path id="TimesNewRomanPSMT-25" d="M 4350 4334 
L 1263 -175 
L 984 -175 
L 4072 4334 
L 4350 4334 
z
M 1138 4334 
Q 1559 4334 1792 3984 
Q 2025 3634 2025 3181 
Q 2025 2638 1762 2341 
Q 1500 2044 1131 2044 
Q 884 2044 678 2180 
Q 472 2316 348 2584 
Q 225 2853 225 3181 
Q 225 3509 350 3786 
Q 475 4063 692 4198 
Q 909 4334 1138 4334 
z
M 1128 4159 
Q 969 4159 845 3971 
Q 722 3784 722 3184 
Q 722 2750 791 2522 
Q 844 2350 956 2256 
Q 1022 2200 1119 2200 
Q 1269 2200 1375 2363 
Q 1531 2603 1531 3166 
Q 1531 3759 1378 4000 
Q 1278 4159 1128 4159 
z
M 4206 2103 
Q 4428 2103 4648 1962 
Q 4869 1822 4989 1553 
Q 5109 1284 5109 963 
Q 5109 409 4843 117 
Q 4578 -175 4216 -175 
Q 3988 -175 3773 -34 
Q 3559 106 3436 367 
Q 3313 628 3313 963 
Q 3313 1291 3436 1562 
Q 3559 1834 3773 1968 
Q 3988 2103 4206 2103 
z
M 4209 1938 
Q 4059 1938 3950 1769 
Q 3809 1550 3809 941 
Q 3809 381 3953 159 
Q 4059 0 4209 0 
Q 4353 0 4466 172 
Q 4616 400 4616 956 
Q 4616 1544 4466 1778 
Q 4363 1938 4209 1938 
z
" transform="scale(0.015625)"/>
      </defs>
      <use xlink:href="#TimesNewRomanPSMT-41"/>
      <use xlink:href="#TimesNewRomanPSMT-63" transform="translate(72.216797 0)"/>
      <use xlink:href="#TimesNewRomanPSMT-63" transform="translate(116.601562 0)"/>
      <use xlink:href="#TimesNewRomanPSMT-65" transform="translate(160.986328 0)"/>
      <use xlink:href="#TimesNewRomanPSMT-70" transform="translate(205.371094 0)"/>
      <use xlink:href="#TimesNewRomanPSMT-74" transform="translate(255.371094 0)"/>
      <use xlink:href="#TimesNewRomanPSMT-65" transform="translate(283.154297 0)"/>
      <use xlink:href="#TimesNewRomanPSMT-64" transform="translate(327.539062 0)"/>
      <use xlink:href="#TimesNewRomanPSMT-20" transform="translate(377.539062 0)"/>
      <use xlink:href="#TimesNewRomanPSMT-38" transform="translate(402.539062 0)"/>
      <use xlink:href="#TimesNewRomanPSMT-30" transform="translate(452.539062 0)"/>
      <use xlink:href="#TimesNewRomanPSMT-25" transform="translate(502.539062 0)"/>
     </g>
    </g>
    <g id="patch_23">
     <path d="M 709.882403 31.54944 
L 727.162403 31.54944 
L 727.162403 24.82944 
L 709.882403 24.82944 
z
" style="fill: #f28e2b; opacity: 0.95; stroke: #000000; stroke-width: 0.75; stroke-linejoin: miter"/>
    </g>
    <g id="text_50">
     <!-- Rejected 20% -->
     <g transform="translate(734.842403 31.54944) scale(0.096 -0.096)">
      <defs>
       <path id="TimesNewRomanPSMT-6a" d="M 925 4447 
Q 1059 4447 1153 4353 
Q 1247 4259 1247 4125 
Q 1247 3994 1153 3900 
Q 1059 3806 925 3806 
Q 794 3806 700 3900 
Q 606 3994 606 4125 
Q 606 4259 700 4353 
Q 794 4447 925 4447 
z
M 1194 2947 
L 1194 66 
Q 1194 -669 881 -1025 
Q 569 -1381 69 -1381 
Q -216 -1381 -353 -1278 
Q -491 -1175 -491 -1066 
Q -491 -956 -414 -878 
Q -338 -800 -234 -800 
Q -153 -800 -69 -841 
Q -16 -863 136 -998 
Q 288 -1134 391 -1134 
Q 466 -1134 537 -1076 
Q 609 -1019 643 -883 
Q 678 -747 678 -294 
L 678 1744 
Q 678 2216 650 2350 
Q 628 2453 581 2492 
Q 534 2531 453 2531 
Q 366 2531 241 2484 
L 197 2597 
L 1059 2947 
L 1194 2947 
z
" transform="scale(0.015625)"/>
      </defs>
      <use xlink:href="#TimesNewRomanPSMT-52"/>
      <use xlink:href="#TimesNewRomanPSMT-65" transform="translate(66.699219 0)"/>
      <use xlink:href="#TimesNewRomanPSMT-6a" transform="translate(111.083984 0)"/>
      <use xlink:href="#TimesNewRomanPSMT-65" transform="translate(138.867188 0)"/>
      <use xlink:href="#TimesNewRomanPSMT-63" transform="translate(183.251953 0)"/>
      <use xlink:href="#TimesNewRomanPSMT-74" transform="translate(227.636719 0)"/>
      <use xlink:href="#TimesNewRomanPSMT-65" transform="translate(255.419922 0)"/>
      <use xlink:href="#TimesNewRomanPSMT-64" transform="translate(299.804688 0)"/>
      <use xlink:href="#TimesNewRomanPSMT-20" transform="translate(349.804688 0)"/>
      <use xlink:href="#TimesNewRomanPSMT-32" transform="translate(374.804688 0)"/>
      <use xlink:href="#TimesNewRomanPSMT-30" transform="translate(424.804688 0)"/>
      <use xlink:href="#TimesNewRomanPSMT-25" transform="translate(474.804688 0)"/>
     </g>
    </g>
   </g>
  </g>
 </g>
 <defs>
  <clipPath id="pc38fce289a">
   <rect x="49.678516" y="55.58784" width="371.086726" height="196.992"/>
  </clipPath>
  <clipPath id="pc0b8feda37">
   <rect x="517.24779" y="55.58784" width="371.086726" height="196.992"/>
  </clipPath>
 </defs>
</svg>
